<svg xmlns="http://www.w3.org/2000/svg" xmlns:xlink="http://www.w3.org/1999/xlink" id="Capa_1" x="0px" y="0px" viewBox="0 0 97 97" style="enable-background:new 0 0 97 97;" xml:space="preserve"><g>	<circle style="fill:#E71D73;" cx="48.5" cy="48.5" r="48.5"></circle>	<g>		<path style="fill:#FFFFFF;" d="M46.7,86.4c-1.2-0.3-2.4-0.6-3.6-1c-5.6-2.2-8.9-8-8.2-14.1c0.7-5.7,5.5-10.6,11.3-11.4   c7.4-1,14,3.9,15.2,11.3c1.1,7-3.8,13.8-11,15.1c-0.3,0.1-0.6,0.1-0.9,0.2C48.6,86.4,47.7,86.4,46.7,86.4z M59.3,73   c0-6.1-5-11.1-11.1-11.1c-6.2,0-11.2,4.9-11.2,11.1c0,6.1,5,11.2,11.1,11.2C54.3,84.2,59.3,79.2,59.3,73z"></path>		<path style="fill:#FFFFFF;" d="M79.7,28.3c-7.2-5-14.3-10-21.5-15c-5.1,7.4-10.3,14.7-15.4,22c0.3,0,0.5,0.1,0.7,0.1   c1.9,0,3.8,0,5.8,0c0.5,0,0.8-0.2,1-0.6c1.4-3.2,3.6-5.6,6.8-6.9c5-2,9.5,1.2,9.3,6.6c0,0.3,0,0.5,0,0.9c0.3,0,0.5,0,0.8,0   c1.6,0,3.3,0,4.9,0c3.2,0.1,5.5,2.4,5.5,5.6c0,2.7,0,5.3,0,8c0,0.5,0.1,0.8,0.7,1c2.2,0.9,3.5,2.5,3.7,4.9c0.1,1.8,0.1,3.5,0,5.3   c-0.1,2.4-1.4,4-3.6,4.9c-0.6,0.2-0.7,0.5-0.7,1.1c0,2.6,0,5.1,0,7.7c0,3.5-2.3,5.8-5.8,5.8c-2.7,0-5.3,0-8,0   c-0.7,0-1.2-0.4-1.2-1.1c0-0.7,0.5-1.1,1.3-1.1c0.1,0,0.3,0,0.4,0c2.5,0,4.9,0,7.4,0c2.4,0,3.7-1.3,3.7-3.7c0-2.7,0-5.4,0-8.2   c-0.3,0-0.5,0-0.8,0c-2.4,0-4.7,0-7.1,0c-4.2,0-7.5-3-8-7.3c-0.4-3.9,2.3-7.5,6.2-8.4c0.7-0.2,1.4-0.2,2.1-0.2c2.2,0,4.4,0,6.6,0   c0.3,0,0.5,0,0.8,0c0-0.3,0-0.5,0-0.7c0-2.6,0-5.2,0-7.8c0-2.1-1.4-3.5-3.5-3.5c-15.9,0-31.7,0-47.6,0c-2.2,0-3.5,1.4-3.5,3.6   c0,10.9,0,21.8,0,32.8c0,2.2,1.3,3.5,3.5,3.5c2.6,0,5.1,0,7.7,0c0.9,0,1.4,0.4,1.4,1.1c0,0.7-0.5,1.1-1.4,1.1c-2.6,0-5.2,0-7.7,0   c-3.3,0-5.6-2.4-5.6-5.6c0-11,0-22,0-33c0-2,0.8-3.6,2.5-4.7c0.4-0.2,0.5-0.5,0.5-0.9c0-3.3,0-6.6,0-9.9c0-0.2,0-0.5,0-0.7   c0.1-0.6,0.5-0.9,1.1-0.9c0.6,0,1,0.4,1.1,1c0,0.2,0,0.4,0,0.7c0,3,0,6,0,8.9c0,0.3,0,0.5,0,0.8c1.1,0,2.1,0,3.2,0   c0-6.8,0-13.5,0-20.3c-1,0-2.1,0-3.2,0c0,1.3,0,13.1,0,14.3c0,0.5,0,1.1,0,1.6c0,0.7-0.5,1.1-1.1,1.1c-0.6,0-1.1-0.4-1.1-1.1   c0-0.6,0-1.2,0-1.8c0-1.3,0-13.1,0-14.4c0-1.3,0.7-2,2-2c8.7,0,17.4,0,26,0c1.3,0,1.9,0.7,1.9,2c0,1.3,0,2.6,0,4.1   c0.3-0.3,0.4-0.5,0.5-0.7c1.5-2.1,2.9-4.2,4.4-6.3c0.8-1.2,1.7-1.3,2.8-0.5c7.3,5.1,14.5,10.2,21.8,15.3c1.1,0.8,1.3,1.7,0.5,2.8   c-1.1,1.5-2.1,3.1-3.2,4.6c-0.5,0.7-1.1,0.9-1.7,0.5c-0.6-0.4-0.6-1-0.1-1.8C77.7,31.2,78.7,29.8,79.7,28.3z M34.7,35.3   c1.6,0,3.2,0,4.7,0c0.5,0,0.8-0.1,1.1-0.6c2.8-4.1,5.7-8.1,8.5-12.2c0.2-0.3,0.4-0.8,0.4-1.2c0-1.9,0-3.8,0-5.7c0-0.2,0-0.5,0-0.7   c-5,0-9.8,0-14.7,0C34.7,21.8,34.7,28.5,34.7,35.3z M71.8,63.2c1.5,0,2.9,0,4.4,0c2.1,0,3.5-1.4,3.6-3.5c0-1.5,0-3,0-4.5   c-0.1-2-1.4-3.5-3.4-3.5c-3,0-6-0.1-9,0c-3.2,0.1-5.6,2.7-5.6,5.8c0.1,3.2,2.6,5.6,5.9,5.7C69.1,63.2,70.4,63.2,71.8,63.2z    M32.4,35.3c0-6.8,0-13.6,0-20.3c-1,0-2,0-3,0c0,6.8,0,13.5,0,20.3C30.4,35.3,31.3,35.3,32.4,35.3z M64.1,35.3   c0-0.8,0.1-1.5,0-2.2c-0.3-2.5-2.3-4-4.8-3.5c-3.3,0.6-5.4,2.8-6.8,5.6c0,0,0,0.1,0,0.2C56.4,35.3,60.2,35.3,64.1,35.3z"></path>		<path style="fill:#FFFFFF;" d="M75.9,27.3c-0.1,0.3-0.2,0.6-0.4,0.8c-0.3,0.6-0.3,1.1,0.2,1.5c0.7,0.7,0.7,1,0.2,1.8   c-0.5,0.7-0.9,1.3-1.4,2c-0.4,0.6-1.1,0.7-1.6,0.4c-0.5-0.4-0.6-1-0.2-1.6c0.1-0.2,0.2-0.3,0.3-0.5c0.5-0.6,0.7-1.1,0.3-1.9   c-0.2-0.4-0.2-1-0.2-1.4c0.1-0.6-0.1-0.9-0.6-1.2c-0.4-0.2-0.7-0.4-1-0.7c-0.5-0.4-0.5-0.9-0.2-1.5c0.4-0.5,0.9-0.7,1.4-0.3   c0.9,0.6,1.7,1.2,2.6,1.8C75.6,26.7,75.7,27.1,75.9,27.3z"></path>		<path style="fill:#FFFFFF;" d="M58.8,19.9c-0.7-0.3-1,0.1-1.3,0.6c-0.2,0.3-0.4,0.6-0.6,0.8c-0.4,0.5-1,0.6-1.5,0.3   c-0.5-0.3-0.6-1-0.3-1.5c0.5-0.8,1.1-1.6,1.6-2.4c0.4-0.5,0.9-0.6,1.4-0.3c0.7,0.4,1.2,0.3,1.7-0.4c0.4-0.6,1-0.6,1.6-0.2   c0.8,0.5,1.6,1.1,2.4,1.6c0.5,0.4,0.6,1.1,0.3,1.6c-0.4,0.5-1,0.6-1.6,0.2c-0.1-0.1-0.3-0.2-0.4-0.3c-0.7-0.6-1.3-0.9-2.2-0.3   C59.7,19.9,59.2,19.8,58.8,19.9z"></path>		<path style="fill:#FFFFFF;" d="M47.3,78.3c-0.5,0-1.1,0-1.6,0c-0.8,0-1.3-0.5-1.3-1.1c0-0.6,0.5-1.1,1.3-1.1c1.1,0,2.1,0,3.2,0   c0.8,0,1.3-0.4,1.3-1c0-0.7-0.4-1-1.3-1c-0.5,0-1,0-1.5,0c-1.7,0-3.1-1.2-3.3-2.8c-0.2-1.8,0.9-3.2,2.6-3.6c0.2,0,0.3-0.1,0.6-0.1   c0.1-0.8-0.2-2,1.2-2c0.7,0,1,0.5,1.1,2c0.4,0,0.8,0,1.2,0c0.7,0,1.2,0.5,1.2,1.1c0,0.7-0.5,1.1-1.2,1.1c-1.1,0-2.1,0-3.2,0   c-0.9,0-1.3,0.4-1.3,1.1c0,0.6,0.4,1,1.3,1c0.5,0,1,0,1.5,0c1.7,0,3.1,1.2,3.3,2.8c0.2,1.7-0.8,3.1-2.5,3.6   c-0.1,0-0.2,0.1-0.3,0.1c-0.2,1.7-0.5,2-1.2,2C47.6,80.3,47.4,79.9,47.3,78.3z"></path>		<path style="fill:#FFFFFF;" d="M68.1,61.6c-2,0-3.7-1.2-4.2-2.9c-0.5-1.7,0.2-3.6,1.7-4.6c1.5-1,3.5-0.9,4.9,0.3   c0.6,0.5,0.8,1.2,0.4,1.7c-0.4,0.5-1.1,0.5-1.7,0c-0.9-0.7-1.9-0.7-2.6,0.1c-0.7,0.7-0.7,1.8,0,2.5c0.7,0.8,1.7,0.8,2.6,0.2   c0.7-0.5,1.3-0.5,1.7,0c0.4,0.5,0.3,1.2-0.4,1.7C69.7,61.2,68.8,61.5,68.1,61.6z"></path>	</g></g></svg>