<?xml version="1.0" encoding="utf-8"?>
<!-- Generator: Adobe Illustrator 26.2.1, SVG Export Plug-In . SVG Version: 6.00 Build 0)  -->
<svg version="1.1" id="Capa_1" xmlns="http://www.w3.org/2000/svg" xmlns:xlink="http://www.w3.org/1999/xlink" x="0px" y="0px"
	 viewBox="0 0 97 97" style="enable-background:new 0 0 97 97;" xml:space="preserve">
<g>
	<path style="fill:#E71D73;" d="M94.2,48.5c-0.1,19-12.1,36.5-30,43c-18.1,6.6-38.7,0.9-51-13.9C0.9,62.8-0.6,41.2,9.4,24.8
		C19.3,8.5,38.8-0.1,57.6,3.7c18.5,3.8,33,19,36.1,37.6C94,43.6,94.2,46.1,94.2,48.5c0,1.4,2.2,1.4,2.2,0
		c-0.1-20-12.7-38.2-31.5-45.1C46-3.5,24.1,2.5,11.4,18.1C-1.3,33.6-3,56.1,7.4,73.4C17.8,90.5,38.3,99.4,58,95.5
		c19.4-3.9,34.8-20,37.8-39.5c0.4-2.5,0.6-5,0.6-7.5C96.4,47.1,94.2,47.1,94.2,48.5z"/>
</g>
<g>
	<g>
		<path style="fill:#E71D73;" d="M50.4,79.6c-0.2,0-0.3,0-0.5,0c-0.5-0.1-1-0.1-1.5-0.2c-0.2,0-0.4,0-0.6-0.1c-0.3,0-0.6,0-0.9,0.1
			c-0.4,0.1-0.8,0.2-1.2-0.2c-0.2-0.1-0.7-0.6-0.2-2.2c0.1-0.4,0.3-1.3,0.4-2c1.2-7.9,1.1-15.7-0.2-23c-0.1-0.6-0.3-1.2-0.4-1.8
			c-0.1-0.3-0.2-0.6-0.3-1c-0.1-0.3,0-0.5,0.2-0.7c0.2-0.2,0.5-0.2,0.7-0.2c0.1,0,0.3,0.1,0.4,0.1c-0.3-1.3-0.8-2.5-1.7-3.5
			c0,1.8-0.9,3.2-1.6,4.2c-0.5,0.8-0.6,1.7-0.5,2.7c0,0.1,0,0.1,0,0.2c0,0.5,0.1,1.5-0.9,1.8c-0.2,0.1-0.3,0.1-0.5,0.1
			c0.1,1.2-0.3,2.4-0.7,3.5c-0.1,0.3-0.2,0.5-0.3,0.8c-0.2,0.7-0.6,0.9-0.9,1c-0.1,0-0.2,0-0.4,0c0,0,0,0,0,0.1
			c0.2,0.4,0.3,0.8,0.4,1.2c0.3,1.4-0.9,3.7-2.3,5.2c-1.2,1.4-2.6,2.2-3.8,2.1c-0.5,0-1.1-0.1-1.5-0.7c-0.9-1.1-1.5-2.5-1.8-4.1
			c-0.2-1.5-0.2-3-0.2-4.3c0-0.9,0.3-1.6,0.7-2.3c-0.3-0.1-0.5-0.3-0.5-0.6c-0.2-2.8,1.2-4.6,2.7-6c0-0.1,0-0.2,0-0.3
			c0.1-2.6,1.9-5.2,4.3-6.8c-0.2,0.1-0.4,0.2-0.6,0.4c-0.1,0.1-0.2,0.1-0.3,0.2c-0.5,0.3-1.3,0.9-2.2,0.3c0,0-0.1-0.1-0.1-0.1
			c-0.3,0.6-0.9,0.9-1.7,1c-0.6,0.1-1.2,0.1-1.8,0.1c-1,0-1.9,0-2.7,0.3c-0.6,0.2-1,0-1.2-0.2c0,0,0,0-0.1-0.1
			c-0.3,0.7-1,1.1-1.9,1.1c-1.1-0.1-2.2-0.1-3.2-0.3c-0.9-0.1-1.3-0.6-1.4-0.9c-0.2-0.3-0.3-0.9,0.2-1.7c0.7-1.3,1.8-3,3.8-4
			l0.2-0.1c2.7-1.4,5.5-2.8,8.6-3.3c1.6-0.2,3.2-0.2,4.9,0.1c0.3,0.1,0.5,0.1,0.8,0.2c0.4,0.1,0.8,0.1,1.2,0.2
			c-0.1-0.1-0.2-0.2-0.3-0.3c-0.5-0.5-1.3-0.7-2.1-0.9l-0.3-0.1c-0.7-0.2-1.6-0.5-2.3-1.2c-0.4-0.4-0.6-0.9-0.5-1.3
			c0-0.1,0.1-0.3,0.1-0.4c-0.3-0.1-0.6-0.2-1-0.6c-0.1-0.2-0.4-0.2-0.7-0.3c-0.2-0.1-0.5-0.1-0.7-0.3c0,0-0.1,0-0.1,0
			c-0.2-0.1-0.8-0.4-0.8-1.1c0-0.2,0-0.4,0.1-0.5c0,0-0.1,0-0.1,0l-0.2,0.1c-1.2,0.4-1.9-0.2-2.2-0.6c-0.6-0.8-1.4-1.2-2.4-1.7
			l-0.1-0.1c-0.6-0.3-1.3-0.7-2-1.4c-0.7-0.8-1-1.8-0.7-2.7c0.2-0.8,0.9-1.4,1.8-1.7c3.6-1,6.6-0.6,9.1,1c0.3,0.2,0.6,0.4,0.9,0.6
			c1,0.6,1.9,1.2,2.9,1.7c3,1.5,5.4,3.8,7.6,7.4c0-0.3,0-0.7,0.1-1c0.4-4.8,3-8.2,7.8-10c0.5-0.2,1-0.3,1.5-0.3
			c0.9,0,1.4,0.3,1.6,0.6c0.3,0.3,0.5,0.8,0.4,1.7c-0.1,0.6-0.3,1.2-0.5,1.7c-0.1,0.2-0.1,0.3-0.2,0.5c-0.1,0.4-0.3,0.6-0.6,0.7
			c0.4,0.5,0.2,1.1,0,2c0,0.2-0.1,0.3-0.1,0.5c0,0.2-0.1,0.3-0.1,0.5c0.5-0.3,0.9-0.5,1.4-0.7c0.6-0.3,1.2-0.6,1.8-0.9
			c1.2-0.7,2.4-1.1,3.7-1c0.8,0,1.7,0,2.5-0.1c1.5-0.1,3.1-0.2,4.7,0.2c1,0.3,2.1,0.6,3,1.6c0.6,0.6,0.8,1.3,0.6,2
			c-0.2,0.7-0.7,1.2-1.4,1.4c-0.2,0.1-0.4,0.1-0.6,0.2c-0.7,0.3-1.5,0.6-2.4,0.5c-0.4,0-0.7,0.1-0.9,0.3c-0.2,0.2-0.5,0.3-0.7,0.4
			c0.1,0.2,0.1,0.4,0.1,0.6c0,0.1-0.2,0.5-0.7,0.5c-0.1,0-0.1,0-0.1,0c-0.6,0.1-1.2,0.3-1.7,0.5c-0.2,0.1-0.5,0.2-0.7,0.3
			c-0.8,0.3-1.8,0.5-2.9,0.1c0.1,0.3,0.1,0.6-0.1,1c-0.6,1.1-1.6,1.6-2.7,1.5c-0.1,0-0.3-0.1-0.4-0.1c0,0.1,0.1,0.3,0,0.4
			c0,0,0,0.1,0,0.1c1.3-0.3,2.6-0.3,4,0.2c0.7,0.2,1.5,0.2,2.3,0.3c0.4,0,0.8,0,1.3,0.1c0.1,0,0.1,0,0.2,0c0.3,0,0.7,0,1.1,0.3
			c0.8,0.6,1.6,1,2.6,1.5c1.2,0.6,2.5,1.2,3.5,2.3c0,0,0.1,0,0.1,0.1c0.2,0.2,0.7,0.6,0.5,1.3c0,0,0,0.1,0,0.1
			c1,0.6,1.7,1.4,2.1,2.4c0.2,0.4,0.4,0.7,0.8,1c0.2,0.2,0.4,0.4,0.5,0.6c1.3,1.8,1.8,3.9,1.4,6.4c-0.2,1.2-1,2-2.3,2
			c-1.1,0-2.1-0.3-3.1-0.7l0,0c-0.6-0.2-0.9-0.6-1-1.1c0,0,0,0,0,0c-0.6,0.2-1.2-0.3-1.3-0.4c-0.9-0.8-1.8-1.8-1.8-3.3
			c-0.1,0-0.1,0-0.1,0c-0.2,0-0.7,0-1.1-0.7c-0.3-0.6-0.9-1-1.7-1.4c-0.8-0.3-1-0.9-1.1-1.4c-0.3,0.4-0.8,0.6-1.5,0.5
			c-1.1-0.1-1.9-0.6-2.5-1.4c-0.8-1.1-1.8-1.6-3.2-1.6c-1.1,0-3.2,0-4.6-1.7c-0.2,0.3-0.5,0.7-0.8,1.1c0.3,0,0.7,0,1,0
			c0.9,0.1,1.6,0.4,2.5,1.4c0,0,0,0.1,0.1,0.1c0.4,0.6,0.8,1.3,1.2,2c0.1,0.2,0.2,0.3,0.2,0.4c0.3,0,0.6,0.1,0.9,0.5
			c0.1,0.1,0.2,0.2,0.3,0.3c0-0.3,0.1-0.5,0.3-0.7c0.2-0.2,0.4-0.3,0.7-0.3c0.5,0,1.6,0.2,2.1,1.7c0.6,1.7,0.6,3.5-0.1,5.3
			c0,0,0,0,0,0c0.4,0.2,0.5,0.5,0.6,0.6c0,0,0,0,0,0.1c0,0,0,0,0,0.1c0.1,0.2,0.2,0.5,0.2,0.7l0,0.1c0.5,1.8,0.2,4.2-0.9,5.8
			c-0.6,1-1.4,1.6-2.4,1.7c-0.1,0-0.2,0.1-0.2,0.1l0,0c0,0,0,0.1,0,0.2c0,0.5,0,0.9,0,1.3c0,0.2,0,0.4,0,0.5c0,0.1,0,0.2,0,0.2
			c1.7,0.7,1.7,2.3,1.7,3c0,1.2-0.3,2.5-0.9,4c0,0-0.8,1.9-1.7,2l0,0c-0.6,0.1-1.4-0.5-1.9-1.4c-0.4-0.9-0.7-2-0.9-4.2
			c-0.1-0.8-0.3-2.5,1.5-3.3c0,0,0-0.1,0-0.1c0-0.2,0-0.3,0-0.5c0-0.4,0-0.7,0-1.1c0-0.7-0.1-0.9-0.7-1.2c-2.4-1-3.1-5.3-3.1-6.2
			c0-0.8,0-1.1,0.2-1.5c0.1-0.1,0.2-0.4,0.5-0.5c0-0.1-0.1-0.1-0.1-0.2c-0.8-1.5-1.2-2.9-1.1-4.2l0,0c0-0.7,0.1-1.9,1.3-2.2
			c0.5-0.1,0.9-0.1,1.3,0.2c0.1,0,0.1,0.1,0.2,0.2c0-0.1,0.1-0.1,0.1-0.2c0-0.1-0.1-0.1-0.1-0.2c-0.2-0.4-0.4-0.8-0.6-1.1
			c-0.1-0.1-0.2-0.2-0.2-0.3c-0.4-0.6-1-0.9-1.6-0.9c-0.5,0-0.8,0.4-1.1,1.2c-0.1,0.4-0.3,0.8-0.4,1.3c0.2,0.1,0.4,0.2,0.5,0.3
			c0.3,0.4,0.2,0.9,0.1,1.1c0,0,0,0.1,0,0.1c-0.6,5.6-0.9,10.6-0.7,15.1c0.2,4.8,0.6,8.8,1.1,12.5c0.1,0.5,0.1,1.1-0.3,1.6
			C51.2,79.6,50.8,79.6,50.4,79.6z M47.7,77.9c0.1,0,0.2,0,0.4,0c0.2,0,0.4,0,0.5,0.1c0.5,0,1,0.1,1.5,0.2c0.1,0,0.2,0,0.3,0
			c0-0.1,0-0.2,0-0.3c-0.6-3.8-0.9-7.8-1.2-12.7c-0.2-4.1,0-8.6,0.5-13.5c-0.1,0-0.3,0.1-0.5,0c-0.4-0.1-0.6-0.5-0.5-0.8
			c0-0.2,0.2-1,0.4-1.7c0.1-0.5,0.2-0.9,0.2-1c0.1-0.6,0.3-1.1,0.5-1.6c0.1-0.2,0.2-0.6,0.5-1c-0.1,0-0.3-0.1-0.4-0.2
			c-0.2-0.2-0.3-0.5-0.2-0.8c0,0,0-0.1,0.1-0.1c-0.1,0-0.1,0-0.2,0c-0.3-0.1-0.6-0.4-0.6-0.7c0-1.6,0.2-3,0.5-4.3
			c0.3-1.2,1.2-1.4,1.9-1.4c1.2,0,2.3-0.4,3.4-0.8c0.3-0.1,0.6-0.2,0.9-0.3c0.1,0,0.3-0.1,0.4-0.2c-0.2-0.1-0.4-0.3-0.7-0.5
			c0,0,0,0,0,0c0,0-0.1,0-0.2-0.1c-1.4-0.8-1.6-1-1.6-1.4h0c0-0.2,0.1-0.5,0.3-0.6c0.4-0.3,0.8-0.2,2.3,0.4c0.2,0.1,0.4,0.1,0.4,0.1
			c0.2,0.1,0.5,0.2,0.7,0.2c0.4,0.1,0.7,0.3,1,0.3c0.6,0.1,1-0.4,1.2-0.6c-0.1-0.1-0.2-0.1-0.3-0.2c-0.1-0.1-0.3-0.2-0.4-0.3
			c-0.2-0.2-0.5-0.4-0.8-0.6c-0.2-0.1-0.3-0.2-0.5-0.4c-0.3-0.2-0.4-0.5-0.3-0.8c0.1-0.4,0.6-0.7,1-0.6c0.3,0.1,0.7,0.2,1,0.3
			l0.2,0.1c0.7,0.2,1.3,0.4,1.8,0.7c0.7,0.4,1.4,0.3,2.2,0c0.2-0.1,0.4-0.1,0.6-0.2C62.9,32,62,31.3,61,30.7c-0.3-0.2-0.7-0.4-1-0.7
			c-0.2-0.1-0.3-0.3-0.3-0.6c0-0.2,0.1-0.5,0.3-0.6c1.1-0.9,2.1-0.4,2.5-0.2c0.8,0.4,1.4,0.9,2.1,1.3c0.2,0.2,0.5,0.4,0.7,0.5
			c0.8,0.6,1.2,0.6,1.7,0.2c0.5-0.4,1.2-0.6,1.9-0.6c0.6,0,1.2-0.2,1.8-0.4c0.2-0.1,0.4-0.2,0.6-0.2c0.2-0.1,0.4-0.2,0.5-0.4
			c0-0.2-0.1-0.4-0.3-0.7c-0.6-0.6-1.3-0.9-2.3-1.2c-1.4-0.4-2.8-0.3-4.3-0.2c-0.9,0.1-1.8,0.1-2.7,0.1c-1,0-2,0.2-2.9,0.8
			c-0.6,0.4-1.3,0.7-1.9,1c-1.1,0.5-2.2,1.1-3,1.9c-0.2,0.2-0.6,0.3-0.9,0.1c-0.3-0.2-0.4-0.5-0.3-0.8c0.1-0.4,0.3-0.8,0.4-1.2
			c0.2-0.4,0.4-0.9,0.4-1.3c0-0.2,0.1-0.4,0.1-0.5c0.1-0.3,0.1-0.6,0.2-0.8c-0.3-0.1-0.9-0.1-1.2-0.1c0,0-0.9-0.1-1.3-0.3
			c-0.3-0.1-0.5-0.4-0.6-0.7c0-0.3,0.1-0.6,0.3-0.8c0.1-0.1,0.2-0.1,0.3-0.2c0.5-0.1,1.1-0.1,1.8,0c0.3,0,0.7,0,0.9,0
			c0.1,0,0.2,0,0.3,0c0.1-0.2,0.1-0.3,0.2-0.5c0.2-0.5,0.3-1,0.4-1.5c0-0.3,0-0.4,0-0.5c0,0-0.2-0.1-0.5-0.1c-0.3,0-0.7,0.1-1,0.2
			c-4.3,1.7-6.5,4.5-6.9,8.8C47,31.7,46.9,32.9,47,34c0,0.3-0.1,0.6-0.4,0.7c-0.3,0.1-0.6,0.1-0.8-0.1c-0.3-0.3-0.5-0.5-0.6-0.8
			c-2.3-4.2-4.8-6.8-7.9-8.3c-1.1-0.5-2.1-1.2-3-1.8c-0.3-0.2-0.6-0.4-0.9-0.6c-2.2-1.4-4.7-1.7-8-0.8c-0.4,0.1-0.6,0.3-0.7,0.7
			c-0.1,0.4,0,0.9,0.4,1.3c0.4,0.4,0.8,0.7,1.6,1.1l0.1,0.1c1,0.5,2.1,1,2.8,2.1c0.1,0.1,0.2,0.2,0.6,0.1l0.2-0.1
			c1.4-0.4,2.8-0.8,4.2-1.2l0.1,0c0.4-0.1,1.5-0.5,2.1,0.8c0.1,0.2,0.1,0.4,0,0.6c-0.1,0.2-0.3,0.3-0.5,0.4c-0.9,0.2-1.7,0.6-2.6,1
			c-0.2,0.1-0.5,0.2-0.8,0.3c0.4,0.1,0.9,0.3,1.3,0.7c0.1,0.1,0.2,0.2,0.7,0.1c0.2,0,0.5-0.2,0.9-0.3c1.1-0.3,2.4-0.8,3.3-0.6
			c0.3,0.1,0.6,0.3,0.6,0.6c0,0.3-0.1,0.6-0.4,0.8c-0.5,0.2-1.2,0.5-2,0.8c-0.7,0.3-1.4,0.6-1.8,0.8c0,0,0,0,0,0c0,0,0,0,0,0
			c0.4,0.4,0.9,0.6,1.6,0.8l0.3,0.1c1,0.2,2,0.5,2.8,1.3c1.4,1.5,3.4,2.4,6,2.9c0.9,0.2,1.2,0.9,1.3,1.2c0.6,1.7,1,3.6,1.1,5.8
			c0,0.3-0.2,0.7-0.6,0.7c-0.3,0.1-0.7-0.1-0.8-0.4c-0.1-0.2-0.2-0.4-0.3-0.7c0,0.1-0.1,0.2-0.2,0.3c-0.2,0.1-0.3,0.2-0.5,0.1
			c1.4,1.7,1.9,3.9,2.3,6.3c0.1,0.3-0.1,0.6-0.4,0.8c-0.2,0.1-0.5,0.1-0.8-0.1c0,0.1,0.1,0.3,0.1,0.4c1.3,7.5,1.4,15.4,0.2,23.5
			c-0.1,0.7-0.3,1.6-0.5,2.1c0,0.2-0.1,0.3-0.1,0.5C47.1,78,47.4,77.9,47.7,77.9z M57.1,73.4L57.1,73.4L57.1,73.4z M57.5,73.3
			L57.5,73.3L57.5,73.3z M57.4,66.8c-0.1,0.2-0.3,0.3-0.5,0.4c-0.7,0.3-0.8,0.7-0.7,1.9c0.2,1.9,0.4,3,0.8,3.6
			c0.1,0.2,0.2,0.4,0.3,0.5c0.2-0.3,0.5-0.8,0.6-1c0.5-1.2,0.8-2.3,0.8-3.4c0-1-0.2-1.4-0.8-1.6C57.7,67.1,57.5,66.9,57.4,66.8z
			 M35,51.2c0.1,0,0.3,0,0.4,0.1c0.2,0.1,0.3,0.4,0.3,0.6c0,0.8-0.4,1.2-0.7,1.4c0,0-0.1,0.1-0.1,0.1c-0.2,0.2-0.4,0.4-0.6,0.7
			c-0.4,0.4-0.9,0.9-1.2,1.3c-0.1,0.2-0.3,0.4-0.4,0.6c-0.7,0.9-1.4,1.8-1.4,2.9c0,1.3,0,2.7,0.2,4.1c0.2,1.3,0.7,2.4,1.5,3.4
			c0.1,0.1,0.2,0.2,0.5,0.2c0.7,0,1.7-0.6,2.6-1.6c1.3-1.5,2.1-3.3,1.9-4c0-0.3-0.2-0.5-0.3-0.8c-0.3-0.8-1.2-2.4-2.3-4.1
			c-0.2-0.3-0.1-0.6,0.1-0.9c0.2-0.2,0.6-0.3,0.9-0.1c0.8,0.5,2.2,2.1,2.7,2.7c0-0.1,0.1-0.3,0.1-0.4c0.5-1.3,0.9-2.6,0.5-3.8
			c0-0.1-0.3-0.6-0.6-0.9c-0.2-0.2-0.5-0.5-0.8-0.8c-0.3-0.3-0.6-0.5-0.7-0.6c-0.2-0.3-0.2-0.7,0-1c0.2-0.2,0.5-0.6,2.3,0.6
			c0.6,0.4,1.1,0.9,1.4,1.5l0,0c0-0.1,0-0.1,0-0.2c0-1.1,0-2.4,0.8-3.6c1.3-1.8,1.6-3.3,1.1-5c-0.1-0.3,0-0.6,0.2-0.8c0,0,0,0,0,0
			c-0.3-0.1-0.6-0.1-1-0.1c-0.9,0.1-1.7,0.3-2.4,0.4c-2.4,0.6-4.6,2.7-5.5,5c0.7-0.4,1.1-0.5,1.5-0.5c0.3,0.1,0.5,0.2,0.6,0.5
			c0.1,0.3,0.1,0.6-0.2,0.9c-0.2,0.1-0.6,0.4-1.3,0.9c-0.4,0.3-1.1,0.7-1.2,0.8c-1,0.9-1.8,1.8-2.2,2.8c0.8-0.9,1.7-1.7,2.8-2.3
			C34.8,51.2,34.9,51.2,35,51.2z M54,56.1c0,0.1-0.1,0.3-0.1,0.8c0,0.6,0.7,4.2,2.2,4.8c0.5,0.2,0.9,0.5,1.2,0.9
			c0.2-0.3,0.6-0.5,1.1-0.6c0.7-0.1,1.1-0.7,1.4-1.1c0.8-1.2,1.1-3.2,0.7-4.7l0-0.1c0-0.2-0.1-0.3-0.1-0.4c0,0,0,0,0,0
			c-0.1,0.4-0.1,0.9-0.1,1.3c0,0.2,0,0.4,0,0.6c0,0.3-0.1,1-0.7,1.2c-0.2,0.1-0.6,0.1-1.1-0.4c-0.6-0.7-0.8-2.9-0.8-3.4
			c0-0.4,0.4-0.7,0.8-0.7c0,0,0,0,0,0c0.2,0,0.7-0.2,0.9-0.3c0.1-0.1,0.3-0.3,0.3-0.3c0.6-1.5,0.6-2.9,0.1-4.3
			c-0.1-0.3-0.2-0.5-0.3-0.6c0,0.5,0.1,1.3,0.2,1.7c0.1,0.9,0.2,1.4,0.1,1.7c-0.1,0.3-0.4,0.5-0.8,0.5c-0.4,0-0.7-0.2-0.9-0.6
			c-0.1-0.2-0.1-0.4-0.2-0.7c-0.2-0.6-0.4-1.3-0.6-1.7c0,0,0-0.1-0.1-0.2c-0.1-0.2-0.3-0.6-0.4-0.8c0,0,0,0,0,0c0,0-0.1,0-0.2,0
			c-0.1,0-0.2,0-0.3,0c0,0-0.1,0.1-0.1,0.1c0,0,0,0.1,0,0.1c0,0.2,0.1,0.6,0.2,0.9c0.2,0.9,0.5,1.9,0.4,2.6
			c-0.1,0.4-0.3,0.7-0.7,0.8c-0.4,0.1-0.7-0.1-1-0.4c0,0-0.1-0.1-0.1-0.2c-0.2-0.4-0.8-2.5-0.8-2.9c0-0.2-0.2-0.4-0.3-0.5
			c0,0-0.1,0-0.2,0c-0.1,0-0.2,0.3-0.2,0.9l0,0c0,1.1,0.3,2.2,0.9,3.5c0.1,0.1,0.2,0.3,0.3,0.3c0.3,0.2,0.9,0.5,1.7,0.5
			c0.3,0,0.5,0.2,0.6,0.4c0.4,0.7,0.4,2.3,0.2,3c-0.2,0.8-0.7,0.9-0.9,0.9c-0.4,0.1-0.8-0.2-1-0.5c-0.3-0.5-0.4-0.9-0.5-1.4
			c-0.1-0.3-0.2-0.6-0.3-1C54.4,56.1,54.4,56,54,56.1C54,56.1,54,56.1,54,56.1z M38.8,58.2L38.8,58.2L38.8,58.2z M53.9,56.1
			L53.9,56.1C53.9,56.1,53.9,56.1,53.9,56.1z M73.2,53.5C73.2,53.5,73.2,53.5,73.2,53.5l0.1,0.1c0.9,0.3,1.7,0.6,2.5,0.6
			c0.7,0,0.9-0.3,0.9-0.8c0.3-2.1-0.1-3.9-1.2-5.3c-0.1-0.2-0.3-0.4-0.5-0.6c-0.4-0.4-0.7-0.8-1-1.4c-0.5-1.1-1.4-1.8-2.9-2.3
			l-0.1,0c-0.6-0.2-1.2-0.4-1.6-0.7c-0.2-0.2-0.3-0.4-0.3-0.5c0-0.1,0-0.1,0-0.2c0-0.2,0-0.5,0.2-0.7c0.2-0.2,0.4-0.3,0.7-0.3
			c0,0,0.1,0,0.1,0c-0.5-0.3-1.1-0.6-1.7-0.9c-1-0.5-1.9-0.9-2.8-1.6c-0.1,0-0.2,0-0.3,0c-0.1,0-0.2,0-0.2,0c-0.4,0-0.8,0-1.2-0.1
			c-0.9,0-1.8,0-2.7-0.3c-2.5-0.7-4.6,0.1-7.1,1.3c-0.5,0.3-1.1,0.6-1.5,1c0.2,0,0.5,0.1,0.8,0.5c0.8,1.1,1.9,1.4,3.6,1.4
			c1.9,0,3.3,0.7,4.4,2.1c0.4,0.5,0.9,0.7,1.5,0.8c0.1,0,0.2,0,0.3,0c0,0,0-0.1,0.1-0.3c0.1-0.5,0.2-1.1,0.3-1.6
			c0.2-0.9,0.3-1.8,0.3-2.8c0-0.2,0.1-0.5,0.3-0.6c0.2-0.1,0.5-0.2,0.7-0.1c1.1,0.4,1.1,1.3,1.2,1.7c0,0.1,0,0.1,0,0.2
			c0.1,0.8,0,1.6-0.1,2.3C66,45,66,45.5,66,46c0,0.6,0.1,0.6,0.2,0.7c0.8,0.3,1.4,0.7,1.9,1.3c0-0.2,0.1-0.3,0.1-0.5
			c0-0.2,0.1-0.4,0.2-0.7c0.1-0.3,0.3-0.5,0.7-0.6c0.3,0,0.6,0.2,0.7,0.5c0.3,0.9,0.4,1.9,0.3,2.9c-0.1,1,0.3,1.6,1.1,2.4
			c0.1-0.8,0.2-1.6,0.3-2.5l0-0.2c0-0.4,0.3-0.6,0.6-0.7c0.4,0,0.7,0.2,0.8,0.5c0.3,1.1,0.6,2.4,0.4,3.8
			C73.1,53.4,73.2,53.5,73.2,53.5C73.2,53.5,73.2,53.5,73.2,53.5z M55.9,49.2C55.9,49.2,55.9,49.2,55.9,49.2
			C55.9,49.2,55.9,49.2,55.9,49.2z M55.9,49.2C55.9,49.2,55.9,49.2,55.9,49.2C55.9,49.2,55.9,49.2,55.9,49.2z M68.7,48.8L68.7,48.8
			L68.7,48.8z M21.1,43.9c0,0,0.1,0.1,0.4,0.1c1,0.2,2,0.2,3,0.3c0.4,0,0.5,0,0.6-0.6c0.2-1.5,0.8-2.8,1.4-3.8
			c0.5-1,1.1-0.9,1.6-0.8c0.4,0.1,0.5,0.4,0.6,0.6c0.2,0.4,0,0.8-0.1,1c0,0,0,0.1,0,0.1c-0.2,0.5-0.3,1-0.5,1.5
			c-0.1,0.4-0.2,0.8-0.4,1.1c0.9-0.2,1.8-0.2,2.6-0.2c0.6,0,1.1,0,1.6-0.1c0.6-0.1,0.8-0.2,0.8-0.8c0-0.1,0-0.3,0-0.5
			c0-1.3,0.1-2.6,0.6-3.3c0.1-0.2,0.4-0.3,0.7-0.3c0.3,0,0.5,0.2,0.6,0.4c0.3,0.6,0.2,1.4,0.2,2.3c0,0.5-0.1,1.3,0,1.6
			c0.1,0,0.4-0.2,0.5-0.3c0.1-0.1,0.2-0.2,0.4-0.2c1.8-1.1,4.1-2.1,6.7-1.7c0,0,0.2,0,0.3-0.1c0.2,0,0.5-0.1,0.8-0.1
			c0-0.1-0.1-0.2-0.1-0.3c-0.3-1.3-1.3-1.8-2.9-2.3c-0.8-0.2-1.7-0.4-2.5-0.6c-0.3-0.1-0.5-0.1-0.8-0.2c-1.5-0.3-2.9-0.3-4.4-0.1
			c-2.9,0.4-5.5,1.8-8.2,3.2L24.4,40c-1.3,0.7-2.2,1.7-3.2,3.4C21.1,43.7,21.1,43.8,21.1,43.9C21.1,43.9,21.1,43.9,21.1,43.9z
			 M34.8,42.6C34.8,42.6,34.8,42.6,34.8,42.6C34.8,42.6,34.8,42.6,34.8,42.6z M44.8,39.5c0,0,0.1,0.1,0.1,0.1c0.7,0.5,1.2,1,1.8,1.7
			c-0.2-0.8-0.4-1.5-0.6-2.2c-0.1-0.2-0.1-0.2-0.2-0.2c-0.5-0.1-1-0.2-1.5-0.3C44.6,38.8,44.7,39.1,44.8,39.5z M51.3,39.5
			c-0.2,0-0.3,0.1-0.4,0.3c-0.1,0.3-0.2,0.7-0.2,1c0.5-0.5,0.9-1,1.5-1.4C52,39.5,51.7,39.5,51.3,39.5
			C51.4,39.5,51.4,39.5,51.3,39.5z M44.8,39.5L44.8,39.5L44.8,39.5z"/>
	</g>
</g>
</svg>
