<?xml version="1.0" encoding="utf-8"?>
<!-- Generator: Adobe Illustrator 26.2.1, SVG Export Plug-In . SVG Version: 6.00 Build 0)  -->
<svg version="1.1" id="Capa_1" xmlns="http://www.w3.org/2000/svg" xmlns:xlink="http://www.w3.org/1999/xlink" x="0px" y="0px"
	 viewBox="0 0 97 97" style="enable-background:new 0 0 97 97;" xml:space="preserve">
<g>
	<g>
		<circle style="fill:#FFFFFF;" cx="48.9" cy="48.5" r="46.9"/>
	</g>
	<g>
		<path style="fill:#E71D73;" d="M94.2,48.5c-0.1,19-12.1,36.5-30,43c-18.1,6.6-38.7,0.9-51-13.9C0.9,62.8-0.6,41.2,9.4,24.8
			C19.3,8.5,38.8-0.1,57.6,3.7c18.5,3.8,33,19,36.1,37.6C94,43.6,94.2,46.1,94.2,48.5c0,1.4,2.2,1.4,2.2,0
			c-0.1-20-12.7-38.2-31.5-45.1C46-3.5,24.1,2.5,11.4,18.1C-1.3,33.6-3,56.1,7.4,73.4C17.8,90.5,38.3,99.4,58,95.5
			c19.4-3.9,34.8-20,37.8-39.5c0.4-2.5,0.6-5,0.6-7.5C96.4,47.1,94.2,47.1,94.2,48.5z"/>
	</g>
	<g>
		<path style="fill:#E71D73;" d="M82.4,54c-2.8,0-5.6,0-8.4,0c0-1.4,0-2.7,0-4.2c2.8,0,5.6,0,8.4,0C82.4,51.1,82.4,52.6,82.4,54z"/>
		<path style="fill:#E71D73;" d="M17.9,76.9c-0.8-1.2-1.5-2.3-2.3-3.5c5.1-3.4,10.1-6.7,15.1-10.1c-3.7-6.2-4.4-12.6-1.8-19.4
			c1.4,0.6,2.6,1.1,3.9,1.6c-2,5.4-1.5,10.5,1.4,15.4c0.2-0.1,0.4-0.2,0.6-0.4c1.8-1.2,3.5-2.4,5.3-3.5c5.6-3.5,11.3-3.5,16.9,0
			c2,1.2,3.9,2.6,5.8,3.9c3-5,3.6-10.2,1.4-15.5c-3.1-7.3-9-10.6-16.9-10.6c-0.1-1.4-0.2-2.7-0.3-4.2c7.2-0.3,13.4,2.1,17.9,7.7
			c6.2,7.8,6.4,16.2,1.6,24.9c5,3.3,10,6.7,15.1,10c-0.8,1.2-1.5,2.3-2.3,3.5c-0.2-0.2-0.5-0.3-0.7-0.4C70.5,71.3,62.7,66,54.8,60.8
			c-3.3-2.2-6.8-2.7-10.4-1.2c-0.8,0.3-1.5,0.7-2.2,1.2C34.3,66,26.5,71.2,18.6,76.5C18.4,76.6,18.2,76.8,17.9,76.9z"/>
		<path style="fill:#E71D73;" d="M50.6,26.4c-1.4,0-2.8,0-4.2,0c0-2.8,0-5.6,0-8.4c1.4,0,2.7,0,4.2,0C50.6,20.8,50.6,23.6,50.6,26.4
			z"/>
		<path style="fill:#E71D73;" d="M23,54c-2.8,0-5.6,0-8.4,0c0-1.4,0-2.8,0-4.2c2.8,0,5.6,0,8.4,0C23,51.2,23,52.6,23,54z"/>
		<path style="fill:#E71D73;" d="M21.1,27.2c0.9-0.9,1.8-1.8,2.7-2.7c2,1.9,3.9,3.9,5.8,5.8c-0.9,0.9-1.9,1.9-2.7,2.7
			C25.1,31.2,23.1,29.2,21.1,27.2z"/>
		<path style="fill:#E71D73;" d="M75.9,27.3c-1.9,1.9-3.9,3.9-5.8,5.8c-0.9-0.9-1.9-1.9-2.8-2.8c1.9-1.9,3.9-3.9,5.8-5.8
			C74,25.4,74.9,26.4,75.9,27.3z"/>
		<path style="fill:#E71D73;" d="M40.1,37.1c-0.7-1.2-1.4-2.4-2.1-3.7c1.4-0.6,2.8-1.2,4.3-1.9c0.4,1.4,0.8,2.7,1.2,4.1
			C42.4,36.1,41.2,36.6,40.1,37.1z"/>
		<path style="fill:#E71D73;" d="M34.5,42.2c-1.1-0.8-2.2-1.6-3.5-2.4c1-1.2,2-2.3,3.1-3.5c1,1.1,1.9,2.1,2.9,3.1
			C36.2,40.3,35.4,41.2,34.5,42.2z"/>
	</g>
</g>
</svg>
