<?xml version="1.0" encoding="utf-8"?>
<!-- Generator: Adobe Illustrator 26.2.1, SVG Export Plug-In . SVG Version: 6.00 Build 0)  -->
<svg version="1.1" id="Capa_1" xmlns="http://www.w3.org/2000/svg" xmlns:xlink="http://www.w3.org/1999/xlink" x="0px" y="0px"
	 viewBox="0 0 97 97" style="enable-background:new 0 0 97 97;" xml:space="preserve">
<g>
	<path style="fill:#E71D73;" d="M94.2,48.5c-0.1,19-12.1,36.5-30,43c-18.1,6.6-38.7,0.9-51-13.9C0.9,62.8-0.6,41.2,9.4,24.8
		C19.3,8.5,38.8-0.1,57.6,3.7c18.5,3.8,33,19,36.1,37.6C94,43.6,94.2,46.1,94.2,48.5c0,1.4,2.2,1.4,2.2,0
		c-0.1-20-12.7-38.2-31.5-45.1C46-3.5,24.1,2.5,11.4,18.1C-1.3,33.6-3,56.1,7.4,73.4C17.8,90.5,38.3,99.4,58,95.5
		c19.4-3.9,34.8-20,37.8-39.5c0.4-2.5,0.6-5,0.6-7.5C96.4,47.1,94.2,47.1,94.2,48.5z"/>
</g>
<g>
	<path style="fill:#E71D73;" d="M26.9,53.4c-2.2,0-4.3,0-6.5,0c0,2,0,4,0,5.9c0,0.4,0.1,0.8-0.1,1.2c-0.2,0.3-0.5,0.8-0.8,0.8
		c-0.3,0-0.8-0.5-0.8-0.8c-0.1-2.5-0.1-5,0-7.5c0-1,0.8-1.5,1.8-1.5c2.1,0,4.3-0.1,6.4,0c1.3,0,1.8,0.8,1.8,2.1c0,1.8,0,3.6,0,5.3
		c0,0.1,0.1,0.2,0.2,0.4c1.7,0,3.4,0,5.2,0c1.7,0,2.2,0.5,2.3,2.2c0,1.2,0,2.4,0,3.6c0,0.8,0.3,1,1.4,0.6c0-2,0-4.1,0-6.1
		c0.1-4.4,0.2-8.8,0.3-13.2c0-0.2-0.1-0.4,0-0.5c0.3-0.5,0.6-0.9,0.9-1.3c0.3,0.5,0.8,0.9,0.8,1.4c0,3.8-0.2,7.5-0.3,11.3
		c-0.1,4.5,0,8.9,0,13.6c0.2,0,0.7-0.1,1.2,0.1c0.4,0.2,0.7,0.6,1.1,0.9c-0.4,0.3-0.8,0.8-1.1,0.8c-2.3,0.1-4.6,0-6.9,0.1
		c-0.4,0-0.9,0-1.4,0c0,0.9,0,1.7,0,2.6c6.8,0,13.5,0,20.4,0c0-0.8,0-1.6,0-2.6c-2.3,0-4.5,0-6.7,0c-0.2,0-0.4,0-0.7,0
		c-0.7,0-1.6,0.2-1.7-0.8c-0.1-1.1,0.9-0.9,1.6-1c0.1,0,0.3-0.1,0.5-0.1c0-15.2,0-30.4,0-45.2c-1.6,1.1-3.4,2.2-5.1,3.4
		c-0.3,0.2-0.4,0.7-0.4,1.1c-0.1,3.6-0.2,7.3-0.3,10.9c0,0.3,0.1,0.7,0,0.9c-0.2,0.4-0.6,0.7-0.9,1c-0.3-0.3-0.6-0.6-0.9-1
		c-0.1-0.2,0-0.4,0-0.7c0.1-4.1,0.2-8.2,0.3-12.3c0-0.8,0.2-1.3,1.1-1.6c3.8-1.2,5.7-3.9,6.2-7.7c0.1-0.4,0-0.8,0.2-1.2
		c0.2-0.4,0.6-0.7,0.9-1c0.3,0.4,0.8,0.7,0.9,1.1c0.1,1.6,0,3.2,0,4.9c0.6,0,1,0,1.7,0c0-0.4,0-1,0.1-1.4c0.2-0.4,0.6-0.8,0.9-1.1
		c0.3,0.3,0.7,0.6,0.8,1c0.2,0.6,0.2,1.3,0.3,2c0.7,3.4,2.5,5.8,5.8,6.8c1.1,0.3,1.3,1,1.3,2c0.2,10,0.5,20,0.7,30
		c0,0.4,0.1,0.9,0.1,1.5c1.2,0,2.4,0,3.6,0c1.9,0,2.5,0.6,2.5,2.5c0,1.7,0,3.5,0,5.3c1.7,0,3.3,0,5.2,0c0-1.1,0-2.3,0-3.5
		c0-1.7,0.6-2.3,2.3-2.3c1.1,0,2.3,0,3.5,0c0-3.3,0-6.5,0-9.8c-2.1,0-4.1,0-6.4,0c0,1.6,0,3.2,0,4.8c0,1.2,0.1,2.4,0,3.6
		c0,0.4-0.5,0.8-0.8,1.1c-0.3-0.4-0.8-0.7-0.8-1.1c-0.1-0.8,0-1.6,0-2.5c-1.5,0-2.9,0-4.3,0c-1.2,0-1.6-0.4-1.6-1.6c0-2,0-4.1,0-6
		c-0.2-0.2-0.2-0.3-0.3-0.3c-0.7-0.1-1.5-0.2-1.3-1.1c0.1-0.3,1-0.7,1.5-0.7c1.2,0,1.8,0.6,1.8,2c0,1.9,0,3.8,0,5.8
		c1.4,0,2.7,0,4.1,0c0-1.2,0-2.4,0-3.6c0-1.5,0.7-2.2,2.2-2.2c1.9,0,3.7,0,5.6,0c1.5,0,2.1,0.7,2.1,2.1c0,6.1,0,12.3,0,18.4
		c0,1.5-0.7,2.1-2.1,2.1c-18.5,0-36.9,0-55.4,0c-1.5,0-2.1-0.7-2.1-2.1c0-3.3,0-6.6,0-9.9c0-1.5,0.6-2.1,2.1-2.1c1.7,0,3.5,0,5.2,0
		c0.6,0,1-0.1,1-0.9C26.9,59.4,26.9,56.5,26.9,53.4z M51.3,29.2c0,13.7,0,27.7,0,41.8c0.6,0,1,0,1.6,0c0-1.5,0-2.9,0-4.3
		c0-1.8,0.5-2.3,2.3-2.3c0.7,0,1.5,0,2.2,0c0.1-0.3,0.1-0.4,0.1-0.5c-0.3-10.2-0.5-20.3-0.8-30.5c0-0.3-0.3-0.7-0.6-0.9
		C54.6,31.4,52.9,30.3,51.3,29.2z M30.3,75.5c0-3.6,0-7,0-10.4c-3.3,0-6.5,0-9.8,0c0,3.5,0,6.9,0,10.4
		C23.8,75.5,27.1,75.5,30.3,75.5z M63.6,75.5c0-3.1,0-6.2,0-9.2c-3,0-6,0-8.9,0c0,3.1,0,6.2,0,9.2C57.8,75.5,60.7,75.5,63.6,75.5z
		 M49.3,71c0-15.2,0-30.3,0-45.4c-0.3,0-0.6-0.1-0.8-0.1c-0.2,0-0.4,0.1-0.7,0.1c0,15.1,0,30.2,0,45.4C48.3,71,48.7,71,49.3,71z
		 M37.5,68c-0.4,0-0.6-0.1-0.9-0.1c-1.9,0-1.9-0.1-1.9-2c0-1.2,0-2.5,0-3.7c0-0.3-0.4-0.9-0.6-0.9c-1.7-0.1-3.4,0-5.2,0
		c0,0.7,0,1.3,0,1.9c0.3,0,0.5,0.1,0.7,0.1c2.3,0.1,2.7,0.5,2.7,2.8c0,1.7,0,3.3,0,5c1.8,0,3.5,0,5.2,0C37.5,70,37.5,69,37.5,68z
		 M72.5,68.3c0,1.4,0,2.8,0,4.2c0.1,1.2-0.4,1.7-1.6,1.7c-1.8-0.1-3.5,0-5.4,0c0,0.6,0.1,1,0.1,1.4c3.7,0,7.3,0,10.9,0
		c0-2.5,0-4.8,0-7.2C75.1,68.3,73.9,68.3,72.5,68.3z"/>
	<path style="fill:#E71D73;" d="M55.2,34.7c-0.3,0.2-0.7,0.7-1,0.7c-0.4,0-0.8-0.4-1.2-0.7c0.3-0.3,0.6-0.9,1-0.9
		c0.4-0.1,0.8,0.3,1.3,0.5C55.2,34.4,55.2,34.6,55.2,34.7z"/>
</g>
</svg>
