<svg xmlns="http://www.w3.org/2000/svg" xmlns:xlink="http://www.w3.org/1999/xlink" id="Capa_1" x="0px" y="0px" viewBox="0 0 108.9 108.9" style="enable-background:new 0 0 108.9 108.9;" xml:space="preserve"><g>	<circle style="fill:#E71D73;" cx="54.5" cy="54.5" r="54.5"></circle>	<g>		<path style="fill:#FFFFFF;" d="M16.4,81.5c0.1-0.5,0.2-1.1,0.3-1.6c1.3-5.1,4.5-8.3,9.5-9.9c-0.3-0.4-0.7-0.7-1-1.1   c-2.9-3.7-3.7-7.8-1.9-12.2c1.8-4.5,5.3-7,10.1-7.5c0.9-0.1,1.8,0,2.8,0c0.8,0.1,1.3,0.6,1.2,1.3c-0.1,0.7-0.6,1.1-1.5,1.1   c-3.5-0.4-6.4,0.7-8.8,3.3c-2.7,3-3.1,7.5-1.1,11c2,3.6,6.1,5.5,10.1,4.7c3.9-0.7,7.1-3.9,7.7-7.9c0.1-0.5,0.1-0.9,0.2-1.4   c0.1-0.8,0.6-1.3,1.3-1.2c0.7,0,1.1,0.5,1.1,1.4c-0.1,3.1-1.2,5.7-3.3,7.9c-0.2,0.2-0.3,0.4-0.6,0.6c2,0.6,3.8,1.5,5.3,2.8   c3,2.6,4.5,5.9,4.6,9.9c0,0.9,0,1.7,0,2.6c0,2-1.6,3.6-3.6,3.6c-9.7,0-19.4,0-29.1,0c-1.6,0-2.9-1-3.4-2.4   c-0.1-0.2-0.1-0.3-0.2-0.5C16.4,84.5,16.4,83,16.4,81.5z M45.4,86.5c1.3,0,2.5,0,3.7,0c0.7,0,1.1-0.5,1.2-1.3c0-0.8,0-1.7,0-2.5   c-0.1-5-3.7-9.4-8.7-10.4c-0.8-0.1-1.7-0.2-2.3,0c-3.2,1.2-6.3,1.3-9.4,0c-0.3-0.1-0.6-0.2-1-0.2c-4.3,0.5-7.4,2.7-9.2,6.7   c-1,2.1-0.9,4.4-0.8,6.7c0,0.5,0.4,1,0.9,1c1.3,0.1,2.6,0,3.9,0c0-0.2,0-0.3,0-0.5c0-1.4,0-2.8,0-4.2c0-0.8,0.5-1.4,1.2-1.3   c0.7,0,1.1,0.5,1.2,1.3c0,0.3,0,0.5,0,0.8c0,1.3,0,2.6,0,3.9c5.7,0,11.3,0,16.9,0c0-0.3,0-0.6,0-0.8c0-1.3,0-2.6,0-4   c0-0.7,0.5-1.2,1.1-1.2c0.6,0,1.2,0.4,1.3,1.1c0,0.3,0,0.5,0,0.8C45.4,83.7,45.4,85.1,45.4,86.5z"></path>		<path style="fill:#FFFFFF;" d="M64,16.4c1.4,0.2,2.8,0.3,4.2,0.6c6,1.1,11.5,3.5,15.8,7.9c3.2,3.3,5.1,7.2,4.9,11.9   c-0.1,3.9-1.6,7.4-4.2,10.3c-0.4,0.4-0.9,0.7-1.4,0.4c-0.3-0.2-0.7-0.6-0.8-0.9c0-0.4,0.2-0.9,0.5-1.2c1.9-2.2,3-4.6,3.4-7.5   c0.5-3.9-0.7-7.3-3.1-10.2c-2.9-3.6-6.8-5.9-11.1-7.2c-8.6-2.7-16.9-2.2-25,1.8c-3.1,1.5-5.7,3.6-7.7,6.5   c-3.5,5.1-3.2,11.2,0.7,16.2c0.7,0.8,1.4,1.6,2.2,2.3c0.9,0.9,1,1,0.6,2.2c-0.9,2.6-1.7,5.1-2.6,7.8c0.3-0.1,0.5-0.2,0.7-0.3   c2.7-1.5,5.4-3.1,8-4.6c0.6-0.3,1.1-0.4,1.8-0.2c1.6,0.5,3.2,0.9,4.8,1.3c0.6,0.1,0.9,0.4,1,1c0.1,0.9-0.6,1.6-1.5,1.4   c-1.5-0.3-2.9-0.7-4.4-1.1c-0.5-0.1-0.8-0.1-1.3,0.1c-2.6,1.5-5.3,3.1-8,4.6c-1.1,0.6-2.1,0.5-2.9-0.2c-0.8-0.7-1-1.7-0.7-2.7   c0.8-2.3,1.5-4.6,2.3-6.9c0.2-0.5,0.1-0.7-0.3-1.1c-3.7-3.4-5.6-7.7-5.5-12.8c0.1-4.2,2-7.7,4.8-10.6c3.7-3.8,8.2-6.2,13.3-7.4   c2-0.5,4.2-0.7,6.3-1c0.2,0,0.3-0.1,0.5-0.1C61,16.4,62.5,16.4,64,16.4z"></path>		<path style="fill:#FFFFFF;" d="M72,88.9c-3.9,0-7.8,0-11.8,0c-3.1,0-5.2-2-5.2-5.1c0-5.5,0-10.9,0-16.4c0-2.3,1.1-3.9,3.2-4.8   c0.4-0.2,0.4-0.4,0.4-0.7c0-1.8-0.1-3.6,0.2-5.3c1-7,7.8-12.1,14.8-11.1c6.7,1,11.4,6.3,11.5,13.1c0,1.1,0,2.2,0,3.3   c0,0.4,0.1,0.6,0.5,0.7c2.1,0.8,3.2,2.5,3.2,4.7c0,5.5,0,11,0,16.5c0,3-2.1,5-5,5C79.9,88.9,75.9,88.9,72,88.9z M72.1,86.5   c3.9,0,7.8,0,11.7,0c1.8,0,2.8-1,2.8-2.8c0-5.4,0-10.8,0-16.2c0-1.8-1-2.8-2.8-2.8c-7.8,0-15.6,0-23.4,0c-1.8,0-2.8,1-2.8,2.8   c0,5.4,0,10.8,0,16.1c0,1.9,0.9,2.8,2.8,2.8C64.2,86.5,68.1,86.5,72.1,86.5z M66.1,62.3c3.9,0,7.9,0,11.9,0c0-1.3,0-2.5,0-3.7   c-0.1-3.1-2.5-5.6-5.5-5.9c-3-0.2-5.9,1.8-6.4,4.8C65.9,59,66.1,60.6,66.1,62.3z M63.6,62.3c0-1.3,0-2.6,0-3.8   c0.1-4.2,3.3-7.6,7.5-8.2c4-0.5,8.1,2.2,9,6.2c0.4,1.6,0.2,3.3,0.3,4.9c0,0.3,0,0.6,0,0.9c0.9,0,1.6,0,2.4,0c0-1.3,0-2.6,0-3.9   c-0.2-7-7-12.1-13.7-10.1c-7.2,2.2-8.6,8.1-7.9,14C62,62.3,62.7,62.3,63.6,62.3z"></path>		<path style="fill:#FFFFFF;" d="M66,36.4c0,2.3-1.9,4.2-4.2,4.2c-2.3,0-4.2-1.9-4.2-4.3c0-2.3,1.9-4.2,4.2-4.2   C64.1,32.1,66,34,66,36.4z M61.6,38.2c1,0.1,1.8-0.7,1.9-1.7c0.1-1-0.7-1.8-1.7-1.9c-1-0.1-1.9,0.7-1.9,1.7   C59.9,37.3,60.7,38.1,61.6,38.2z"></path>		<path style="fill:#FFFFFF;" d="M78,36.3c0,2.3-1.8,4.2-4.2,4.3c-2.3,0-4.2-1.9-4.3-4.2c0-2.3,1.9-4.2,4.2-4.2   C76.1,32.1,78,34,78,36.3z M73.8,38.2c1,0,1.8-0.8,1.8-1.8c0-1-0.8-1.8-1.8-1.8c-1,0-1.8,0.8-1.8,1.8C72,37.4,72.8,38.2,73.8,38.2   z"></path>		<path style="fill:#FFFFFF;" d="M45.4,36.3c0-2.3,1.9-4.2,4.2-4.2c2.3,0,4.2,1.9,4.2,4.2c0,2.3-1.9,4.2-4.2,4.2   C47.3,40.6,45.4,38.7,45.4,36.3z M49.6,34.5c-1,0-1.8,0.8-1.8,1.8c0,1,0.8,1.8,1.8,1.8c1,0,1.8-0.8,1.8-1.9   C51.4,35.3,50.6,34.5,49.6,34.5z"></path>		<path style="fill:#FFFFFF;" d="M68.4,78.1c0.1-1-0.1-1.8-0.6-2.7c-1.2-2-0.5-4.6,1.4-6.1c1.8-1.4,4.5-1.3,6.2,0.3   c1.7,1.6,2.1,4.2,0.8,6.2c-0.3,0.5-0.4,0.9-0.4,1.4c0,0.7,0,1.4,0,2.1c-0.1,2-1.7,3.5-3.6,3.5c-1.9,0-3.5-1.5-3.6-3.5   C68.4,79,68.4,78.5,68.4,78.1z M70.8,77.5c0,0.5,0,1,0,1.5c0,0.9,0.5,1.4,1.2,1.4c0.7,0,1.2-0.5,1.2-1.4c0-0.9-0.1-1.9,0-2.8   c0-0.5,0.2-1,0.5-1.3c0.9-1.1,0.9-2.5-0.1-3.4c-0.9-0.9-2.4-0.9-3.4,0c-0.9,0.9-0.9,2.3,0,3.4c0.3,0.3,0.4,0.8,0.5,1.2   C70.8,76.6,70.8,77.1,70.8,77.5z"></path>	</g></g></svg>