<svg xmlns="http://www.w3.org/2000/svg" xmlns:xlink="http://www.w3.org/1999/xlink" id="Capa_1" x="0px" y="0px" viewBox="0 0 108.9 108.9" style="enable-background:new 0 0 108.9 108.9;" xml:space="preserve"><g>	<circle style="fill:#E71D73;" cx="54.5" cy="54.5" r="54.5"></circle>	<g>		<path style="fill:#FFFFFF;" d="M87.1,52.6c-1.2-0.4-2.3-0.9-3.5-1.3c-0.8-0.3-1.6-0.6-2.4-0.9c-0.3-0.1-0.4-0.1-0.6,0.1   c-3,2.8-5.9,5.5-8.9,8.3c-0.2,0.2-0.5,0.4-0.7,0.7c-0.6,0.6-1.5,0.6-2.1,0c-0.3-0.3-0.6-0.6-0.8-0.8c0,0-0.1,0-0.1,0.1   c0,0.2,0,0.5,0,0.7c0,5.7,0,11.3,0,17c0,1-0.6,1.6-1.7,1.6c-11.7,0-23.3,0-35,0c-2.3,0-4.6,0-6.9,0c-1.2,0-1.8-0.5-1.8-1.7   c0-8.5,0-17,0-25.5c0-3.2,0-6.4,0-9.5c0-1.3,0.5-1.7,1.8-1.8c5.6-0.1,10.9,0.8,15.9,3.1c1.6,0.7,3,1.7,4.5,2.5   c0.2,0.1,0.3,0.3,0.6,0.1c1.6-1,3.3-1.9,4.9-2.9c0,0-0.1-0.1-0.2-0.2c-0.6-0.6-0.6-1.4,0-2c1.6-1.5,3.1-2.9,4.7-4.4   c1.8-1.7,3.5-3.3,5.3-5c0.2-0.2,0.2-0.4,0.1-0.6c-0.8-1.9-1.6-3.9-2.4-5.8c-0.3-0.7-0.3-1.3,0.2-1.8c0.6-0.5,1.2-0.4,1.9-0.2   c7.2,2.6,14.3,5.2,21.5,7.8c0.7,0.3,1.1,0.7,1.4,1.3c2.7,6.6,5.5,13.3,8.3,19.9c0.4,0.9,0.2,1.5-0.5,2.1c-1.9,1.8-3.9,3.6-5.8,5.4   c-0.2,0.2-0.3,0.4-0.3,0.7c0.1,1.3-1,2.5-2.5,2.7c-1.4,0.1-2.7-0.9-2.9-2.2c-0.2-1.3,0.8-2.6,2.2-2.8c0.1,0,0.3-0.1,0.4,0   c0.7,0.2,1-0.2,1.3-0.6c1.3-1.2,2.5-2.3,3.8-3.5C86.9,52.8,87,52.7,87.1,52.6z M43.8,74.1c0-0.2,0-0.2,0-0.3c0-2.6,0-5.1,0-7.7   c0-5.9,0-11.9,0-17.8c0-0.2-0.1-0.5-0.3-0.6c-0.7-0.5-1.5-1-2.2-1.4c-3.9-2.2-8.2-3.5-12.7-3.9c-1-0.1-2.1-0.1-3.1-0.2   c0,9.1,0,18.1,0,27.1C31.9,69.6,38.1,71,43.8,74.1z M87.2,49.6c-0.1-0.2-0.1-0.3-0.1-0.4c-2.3-5.5-4.6-11-6.9-16.5   c-0.1-0.2-0.3-0.3-0.5-0.4C73.9,30.2,68,28.1,62.2,26c-0.1,0-0.2-0.1-0.4-0.1c0.1,0.2,0.2,0.4,0.2,0.6c0.7,1.6,1.3,3.2,2,4.8   c1.6,3.8,3.2,7.6,4.7,11.4c0.1,0.2,0.3,0.4,0.5,0.5c1.4,0.5,2.8,1,4.2,1.5c3.3,1.2,6.7,2.4,10,3.6C84.6,48.7,85.8,49.1,87.2,49.6z    M53.2,44.9c-0.3-0.2-0.4-0.5-0.8-0.3c-1.8,0.8-3.6,1.7-5.2,2.8c-0.3,0.2-0.4,0.4-0.4,0.7c0,8.5,0,17,0,25.5c0,0.1,0,0.3,0,0.5   c5.6-3,11.7-4.3,18-4.7c0-0.1,0-0.2,0-0.3c0-4.3,0-8.6,0-12.9c0-0.3-0.7-1.1-1-1.2c-0.1,0-0.1,0-0.2,0c-0.5,0.1-1,0.1-1.4,0.2   c-2.8,0.2-5.5,0.8-8.1,2c-1.2,0.6-2.4,1.4-3.6,2.1c-0.9,0.6-2.2,0.1-2.4-0.8c-0.1-0.7,0.2-1.1,0.8-1.5c2.8-2,6-3.3,9.4-4   c0.9-0.2,1.8-0.3,2.7-0.5c-0.1-0.1-0.2-0.2-0.2-0.3c-0.3-0.3-0.6-0.6-0.9-0.8c-0.2-0.1-0.4-0.2-0.6-0.2c-3.1,0.5-6.1,1.5-8.7,3.1   c-0.8,0.5-1.7,0.4-2.2-0.3c-0.5-0.7-0.3-1.6,0.5-2c1.5-0.8,3.1-1.6,4.7-2.3c1.1-0.5,2.3-0.7,3.5-1.1c-0.5-0.4-0.9-0.8-1.3-1.2   c-0.2-0.2-0.5-0.3-0.8-0.2c-1.6,0.5-3.1,1.1-4.6,1.9c-0.8,0.5-1.7,0.3-2.1-0.4C48,48,48.2,47.2,49,46.8c0.8-0.4,1.6-0.8,2.4-1.2   C52,45.3,52.6,45.1,53.2,44.9z M77.7,49.2c-0.1-0.1-0.2-0.1-0.4-0.2c-1.7-0.6-3.3-1.2-5-1.8c-1.5-0.6-3-1.1-4.6-1.6   c-0.9-0.3-1.4-0.8-1.7-1.6c-1-2.6-2.1-5.2-3.2-7.8c-0.4-1-0.8-1.9-1.2-2.9c-2.8,2.6-5.6,5.2-8.3,7.8c5.5,5.2,11,10.3,16.5,15.5   C72.5,54.1,75.1,51.6,77.7,49.2z M39.2,75.2c-4.4-1.9-9-2.8-13.8-3.1c0,1.1,0,2,0,3.1C30.1,75.2,34.6,75.2,39.2,75.2z M51.1,75.1   c4.6,0,9.1,0,13.7,0c0-1,0-2,0-3C60,72.4,55.5,73.2,51.1,75.1z"></path>		<path style="fill:#FFFFFF;" d="M87.5,21.7c0-0.7,0-1.4,0-2.1c0-0.9,0.5-1.5,1.4-1.6c0.8-0.1,1.5,0.5,1.6,1.4   c0.1,2.3,0.2,4.5,0.3,6.8c0,1-0.9,1.7-2,1.4c-2.4-0.7-4.9-1.4-7.3-2.2c-1.2-0.4-1.5-1.6-0.6-2.4c0.5-0.4,1-0.4,1.6-0.2   c0.9,0.3,1.8,0.5,2.8,0.7c-0.5-0.4-0.9-0.8-1.4-1.1c-6.1-4.9-13.2-8.2-21.2-9.6c-8.3-1.5-16.5-0.8-24.4,2   c-6,2.1-11.3,5.3-15.9,9.5c-0.2,0.1-0.3,0.3-0.5,0.4c-0.6,0.4-1.5,0.2-1.9-0.3c-0.4-0.5-0.4-1.4,0.2-1.8c1.3-1.1,2.7-2.3,4.1-3.3   c5.4-4.1,11.5-6.9,18.3-8.5c7.7-1.8,15.4-1.8,23.2-0.1c8.2,1.8,15.5,5.5,21.7,10.9C87.3,21.5,87.4,21.6,87.5,21.7z"></path>		<path style="fill:#FFFFFF;" d="M23.2,85.5c1.2,0.9,2.3,1.8,3.5,2.7c5.9,4.2,12.6,7,20,8.1c7.9,1.2,15.5,0.6,23-2   c6.2-2.1,11.6-5.3,16.3-9.7c0.5-0.5,1-0.7,1.7-0.5c0.5,0.1,0.9,0.5,1,1c0.2,0.6-0.1,1.1-0.5,1.4c-1.9,1.5-3.7,3.2-5.8,4.5   c-4.8,3.3-10.1,5.6-15.9,7c-6.2,1.5-12.4,1.9-18.7,1.1c-7.7-1-14.9-3.5-21.3-7.7c-2-1.3-3.9-2.8-5.7-4.2c0,0.6,0,1.3,0,2.1   c0,0.6-0.2,1-0.7,1.3c-0.9,0.5-2.2,0-2.2-1c-0.1-1.2-0.1-2.3-0.1-3.5c0-1.1-0.1-2.2-0.2-3.3c-0.1-1.4,0.8-2,2.3-1.6   c2.3,0.7,4.7,1.4,7,2.1c0.8,0.3,1.3,1,1,1.7c-0.2,0.7-1,1.1-1.9,0.9c-0.8-0.2-1.6-0.5-2.4-0.7c-0.1,0-0.3-0.1-0.4-0.1   C23.3,85.4,23.2,85.5,23.2,85.5z"></path>		<path style="fill:#FFFFFF;" d="M40.4,66c-0.3-0.2-0.7-0.3-1-0.5c-3.2-2.6-6.9-4.1-11.1-4.8c-1-0.2-1.6-0.8-1.5-1.6   c0.1-0.9,0.8-1.3,1.9-1.2c4.8,0.7,9,2.5,12.7,5.4c0.6,0.5,0.7,1.1,0.5,1.6C41.6,65.6,41.1,66,40.4,66z"></path>		<path style="fill:#FFFFFF;" d="M29.4,45c4.3,0.3,8.3,1.4,12,3.6c0.3,0.2,0.5,0.3,0.7,0.5c0.6,0.5,0.8,1.3,0.3,1.9   c-0.4,0.6-1.3,0.7-2,0.3c-1.1-0.6-2.3-1.3-3.5-1.8c-2.6-1.1-5.3-1.6-8.2-1.7c-1,0-1.6-0.4-1.7-1.2c-0.2-0.8,0.5-1.6,1.4-1.6   C28.8,44.9,29.1,45,29.4,45z"></path>		<path style="fill:#FFFFFF;" d="M28.9,53.5c4.7,0.4,9,1.8,12.8,4.5c0.8,0.5,1,1.4,0.5,2c-0.6,0.7-1.5,0.8-2.3,0.2   c-3.1-2.2-6.7-3.4-10.5-3.9c-0.3,0-0.5-0.1-0.8-0.1c-0.9-0.1-1.5-0.7-1.4-1.5c0.1-0.8,0.7-1.3,1.7-1.3   C28.8,53.5,28.8,53.5,28.9,53.5z"></path>		<path style="fill:#FFFFFF;" d="M29.3,49c4.3,0.4,8.2,1.6,11.8,3.8c0.6,0.4,1,0.8,0.8,1.5c-0.2,1-1.3,1.4-2.3,0.9   c-1.2-0.6-2.4-1.3-3.6-1.8c-2.4-1-4.9-1.5-7.5-1.6c-0.8,0-1.3-0.4-1.5-1c-0.2-0.6,0-1.2,0.6-1.5C28.2,49.1,28.8,49.1,29.3,49z"></path>		<path style="fill:#FFFFFF;" d="M48.2,63.9c0-0.4,0.3-0.7,0.7-1.1c2-1.6,4.3-2.9,6.7-3.9c2.2-0.9,4.6-1.4,7-1.7   c0.9-0.1,1.6,0.4,1.7,1.2c0.1,0.8-0.5,1.5-1.4,1.5c-3.1,0.3-6,1.1-8.7,2.7c-1.2,0.7-2.3,1.5-3.5,2.3c-0.5,0.4-1.1,0.5-1.7,0.2   C48.5,65.1,48.2,64.6,48.2,63.9z"></path>	</g></g></svg>