<?xml version="1.0" encoding="utf-8"?>
<!-- Generator: Adobe Illustrator 26.2.1, SVG Export Plug-In . SVG Version: 6.00 Build 0)  -->
<svg version="1.1" id="Capa_1" xmlns="http://www.w3.org/2000/svg" xmlns:xlink="http://www.w3.org/1999/xlink" x="0px" y="0px"
	 viewBox="0 0 97 97" style="enable-background:new 0 0 97 97;" xml:space="preserve">
<g>
	<g>
		<circle style="fill:#FFFFFF;" cx="48.6" cy="48.5" r="46.9"/>
	</g>
	<g>
		<g>
			<g>
				<g>
					<path style="fill:#E71D73;" d="M16.8,54.8c-0.2,0-0.3-0.1-0.5-0.2c-0.5-0.3-0.7-0.9-0.4-1.4l6.2-10.2c0.1-0.2,0.2-0.3,0.4-0.4
						l0,0l2-3c0.2-0.2,0.4-0.4,0.7-0.5l3.3-0.5l4.1-3.9c0.4-0.4,1-0.4,1.4,0l2.7,2.5c0,0,0,0,0.1,0l2.4,2.5c0.1,0.1,0.2,0.2,0.2,0.4
						l2.2,6.1c0.2,0.5-0.1,1.1-0.6,1.3c-0.5,0.2-1.1-0.1-1.3-0.6l-2.2-5.9l-2.2-2.3l-1.9-1.8l-3.6,3.5c-0.2,0.1-0.3,0.2-0.6,0.3
						l-3.1,0.5l-1.9,2.8c-0.1,0.2-0.2,0.3-0.4,0.4l0,0l-6,10C17.6,54.6,17.2,54.8,16.8,54.8z"/>
				</g>
				<g>
					<path style="fill:#E71D73;" d="M78.6,56.5c-0.4,0-0.7-0.2-0.9-0.6L64.8,32l-3.7-1.6c-0.2-0.1-0.3-0.2-0.4-0.4l-2.3-3.3
						l-3.1,4.6c-0.2,0.3-0.4,0.4-0.7,0.5c-0.3,0-0.6-0.1-0.8-0.3l-1.1-1l-1.9,2.9c-0.2,0.4-0.7,0.6-1.1,0.4l-0.1,0l-1.1,3.1
						c-0.2,0.5-0.6,0.7-1.1,0.7l-0.2,0l-2.1,4.5c0,0,0,0.1-0.1,0.1l-2.1,3.1l-4.9,8.3c-0.3,0.5-0.9,0.7-1.4,0.4
						c-0.5-0.3-0.7-0.9-0.4-1.4l4.9-8.4c0,0,0,0,0,0l2-3.1l2.4-5.1c0.2-0.4,0.6-0.6,1.1-0.6l0.1,0l1.1-3.2c0.2-0.5,0.7-0.8,1.3-0.7
						l0.3,0.1l2.2-3.3c0.2-0.3,0.4-0.4,0.7-0.5c0.3,0,0.6,0.1,0.8,0.3l1.1,1l3.3-4.9c0.2-0.3,0.5-0.5,0.9-0.5c0.3,0,0.7,0.2,0.9,0.5
						l3,4.3l3.8,1.6c0.2,0.1,0.4,0.3,0.5,0.5l13.1,24.2c0.3,0.5,0.1,1.1-0.4,1.4C79,56.4,78.8,56.5,78.6,56.5z"/>
				</g>
			</g>
			<g>
				<g>
					<g>
						<g>
							<path style="fill:#E71D73;" d="M81.1,55.1c-1.9,0-2.8-0.7-4-1.6c-1.3-1.1-2.7-2.2-5.6-2.2c-2.8,0.1-4.2,1.3-5.5,2.4
								c-1.1,1-2,1.8-3.9,1.8c-1.9,0-2.8-0.7-4-1.6c-1.3-1.1-2.7-2.2-5.6-2.2c-2.8,0.1-4.2,1.3-5.5,2.4c-1.1,1-2,1.8-3.9,1.8
								c-1.9,0-2.8-0.7-4-1.6c-1.3-1.1-2.7-2.2-5.6-2.2c-2.8,0.1-4.2,1.3-5.5,2.4c-1.1,1-2,1.8-3.9,1.8c-1.9,0-2.8-0.7-4-1.6
								c-1.3-1.1-2.7-2.2-5.6-2.2c-0.6,0-1.2,0.5-1.1,1.1s0.5,1.1,1.2,1.1c1.9,0,2.8,0.7,4,1.6c1.3,1.1,2.7,2.2,5.6,2.2
								c2.8-0.1,4.2-1.3,5.5-2.4c1.1-1,2-1.8,3.9-1.8c1.9,0,2.8,0.7,4,1.6c1.3,1.1,2.7,2.2,5.6,2.2c2.8-0.1,4.2-1.3,5.5-2.4
								c1.1-1,2-1.8,3.9-1.8s2.8,0.7,4,1.6c1.3,1.1,2.7,2.2,5.6,2.2c2.8-0.1,4.2-1.3,5.5-2.4c1.1-1,2-1.8,3.9-1.8
								c1.9,0,2.8,0.7,4,1.6c1.3,1.1,2.7,2.2,5.6,2.2c0.6,0,1.2-0.5,1.1-1.1C82.3,55.6,81.8,55.1,81.1,55.1z"/>
						</g>
					</g>
				</g>
				<g>
					<g>
						<g>
							<path style="fill:#E71D73;" d="M81.4,63.9c-1.9,0-2.8-0.7-4-1.6c-1.3-1.1-2.7-2.2-5.6-2.2s-4.2,1.3-5.5,2.4
								c-1.1,1-2,1.8-3.9,1.8c-1.9,0-2.8-0.7-4-1.6c-1.3-1.1-2.7-2.2-5.6-2.2c-2.8,0.1-4.2,1.3-5.5,2.4c-1.1,1-2,1.8-3.9,1.8
								c-1.9,0-2.8-0.7-4-1.6c-0.1-0.1-0.3-0.2-0.4-0.4c-0.5-0.4-1.2-0.3-1.6,0.1c-0.4,0.5-0.4,1.1,0.1,1.5c0.1,0.1,0.3,0.2,0.4,0.3
								c1.3,1.1,2.7,2.2,5.6,2.2c2.8-0.1,4.2-1.3,5.5-2.4c1.1-1,2-1.8,3.9-1.8c1.9,0,2.8,0.7,4,1.6c1.3,1.1,2.7,2.2,5.6,2.2
								c2.8-0.1,4.2-1.3,5.5-2.4c1.1-1,2-1.8,3.9-1.8c1.9,0,2.8,0.7,4,1.6c1.3,1.1,2.7,2.2,5.6,2.2c0.6,0,1.2-0.5,1.1-1.1
								S82,63.8,81.4,63.9z"/>
						</g>
					</g>
				</g>
				<g>
					<g>
						<g>
							<path style="fill:#E71D73;" d="M35.6,60.9c-0.5-0.1-1.1-0.1-1.7-0.1c-2.8,0.1-4.2,1.3-5.5,2.4c-1.1,1-2,1.8-3.9,1.8
								s-2.8-0.7-4-1.6c-1.3-1.1-2.7-2.2-5.6-2.2c-0.6,0-1.2,0.5-1.1,1.1c0,0.6,0.5,1.1,1.2,1.1c1.9,0,2.8,0.7,4,1.6
								c1.3,1.1,2.7,2.2,5.6,2.2c2.8-0.1,4.2-1.3,5.5-2.4c1.1-1,2-1.8,3.9-1.8c0.4,0,0.8,0,1.2,0.1c0.6,0.1,1.2-0.3,1.4-0.8
								C36.7,61.6,36.2,61,35.6,60.9z"/>
						</g>
					</g>
				</g>
				<g>
					<g>
						<g>
							<path style="fill:#E71D73;" d="M82.2,73.3c-1.9,0-2.8-0.7-4-1.6c-1.3-1.1-2.7-2.2-5.6-2.2c-2.8,0.1-4.2,1.3-5.5,2.4
								c-1.1,1-2,1.8-3.9,1.8c-1.9,0-2.8-0.7-4-1.6c-1.3-1.1-2.7-2.2-5.6-2.2s-4.2,1.3-5.5,2.4c-1.1,1-2,1.8-3.9,1.8
								c-1.9,0-2.8-0.7-4-1.6c-1.3-1.1-2.7-2.2-5.6-2.2s-4.2,1.3-5.5,2.4c-1.1,1-2,1.8-3.9,1.8c-0.6,0-1.2,0.5-1.1,1.1
								c0,0.6,0.5,1.1,1.2,1.1c2.8-0.1,4.2-1.3,5.5-2.4c1.1-1,2-1.8,3.9-1.8c1.9,0,2.8,0.7,4,1.6c1.3,1.1,2.7,2.2,5.6,2.2
								s4.2-1.3,5.5-2.4c1.1-1,2-1.8,3.9-1.8c1.9,0,2.8,0.7,4,1.6c1.3,1.1,2.7,2.2,5.6,2.2s4.2-1.3,5.5-2.4c1.1-1,2-1.8,3.9-1.8
								c1.9,0,2.8,0.7,4,1.6c1.3,1.1,2.7,2.2,5.6,2.2c0.6,0,1.2-0.5,1.1-1.1C83.4,73.8,82.8,73.3,82.2,73.3z"/>
						</g>
					</g>
				</g>
				<g>
					<g>
						<g>
							<path style="fill:#E71D73;" d="M22.7,73.8c-0.4-0.3-0.8-0.6-1.2-0.9c-1.3-1.1-2.7-2.2-5.6-2.2c-0.6,0-1.2,0.5-1.1,1.1
								c0,0.6,0.5,1.1,1.2,1.1c1.9,0,2.8,0.7,4,1.6c0.5,0.4,0.9,0.8,1.5,1.1c0.2,0.1,0.4,0.2,0.7,0.2c0.4,0,0.7-0.2,0.9-0.5
								C23.3,74.8,23.2,74.1,22.7,73.8z"/>
						</g>
					</g>
				</g>
			</g>
			<g>
				<g>
					<g>
						<g>
							<path style="fill:#E71D73;" d="M42,21.9c-0.7-0.8-1.8-1.3-2.9-1.3c-1.2,0-2.2,0.4-3,1.1c-0.8,0.7-1.3,1.8-1.3,2.9
								c0,1.2,0.4,2.2,1.1,3c0.7,0.8,1.8,1.3,2.9,1.3c1.2,0,2.2-0.4,3-1.1c0.8-0.7,1.3-1.8,1.3-2.9C43.2,23.7,42.7,22.7,42,21.9z
								 M41,27c-0.6,0.5-1.4,0.8-2.2,0.8c-0.8,0-1.6-0.4-2.1-1c-0.5-0.6-0.8-1.4-0.8-2.2c0-0.8,0.4-1.6,1-2.1
								c0.6-0.5,1.4-0.8,2.2-0.8c0.8,0,1.6,0.4,2.1,1c0.5,0.6,0.8,1.4,0.8,2.2S41.6,26.5,41,27z"/>
						</g>
					</g>
				</g>
				<g>
					<g>
						<g>
							<path style="fill:#E71D73;" d="M46.7,24.4L45,24.4c-0.3,0-0.6,0.2-0.6,0.6c0,0.3,0.2,0.6,0.6,0.6l1.7,0.1
								c0.3,0,0.6-0.2,0.6-0.6C47.3,24.7,47,24.4,46.7,24.4z"/>
						</g>
					</g>
				</g>
				<g>
					<g>
						<g>
							<path style="fill:#E71D73;" d="M38.7,30.3c-0.3,0-0.6,0.2-0.6,0.6l-0.1,1.7c0,0.3,0.2,0.6,0.6,0.6c0.3,0,0.6-0.2,0.6-0.6
								l0.1-1.7C39.3,30.6,39,30.3,38.7,30.3z"/>
						</g>
					</g>
				</g>
				<g>
					<g>
						<g>
							<path style="fill:#E71D73;" d="M44.7,30.1l-1.2-1.3c-0.2-0.2-0.6-0.2-0.8,0c-0.2,0.2-0.2,0.6,0,0.8l1.2,1.3
								c0.2,0.2,0.6,0.2,0.8,0C44.9,30.7,44.9,30.3,44.7,30.1z"/>
						</g>
					</g>
				</g>
				<g>
					<g>
						<g>
							<path style="fill:#E71D73;" d="M39.2,16.4c-0.3,0-0.6,0.2-0.6,0.6l-0.1,1.7c0,0.3,0.2,0.6,0.6,0.6c0.3,0,0.6-0.2,0.6-0.6
								l0.1-1.7C39.8,16.7,39.5,16.4,39.2,16.4z"/>
						</g>
					</g>
				</g>
				<g>
					<g>
						<g>
							<path style="fill:#E71D73;" d="M45.1,19c-0.2-0.2-0.6-0.2-0.8,0L43,20.2c-0.2,0.2-0.2,0.6,0,0.8c0.2,0.2,0.6,0.2,0.8,0
								l1.3-1.2C45.3,19.6,45.3,19.3,45.1,19z"/>
						</g>
					</g>
				</g>
				<g>
					<g>
						<g>
							<path style="fill:#E71D73;" d="M32.8,24l-1.7-0.1c-0.3,0-0.6,0.2-0.6,0.6s0.2,0.6,0.6,0.6l1.7,0.1c0.3,0,0.6-0.2,0.6-0.6
								S33.1,24,32.8,24z"/>
						</g>
					</g>
				</g>
				<g>
					<g>
						<g>
							<path style="fill:#E71D73;" d="M34.9,28.5c-0.2-0.2-0.6-0.2-0.8,0l-1.3,1.2c-0.2,0.2-0.2,0.6,0,0.8c0.2,0.2,0.6,0.2,0.8,0
								l1.3-1.2C35.1,29.1,35.1,28.8,34.9,28.5z"/>
						</g>
					</g>
				</g>
				<g>
					<g>
						<g>
							<path style="fill:#E71D73;" d="M35.1,19.9L34,18.7c-0.2-0.2-0.6-0.2-0.8,0s-0.2,0.6,0,0.8l1.2,1.3c0.2,0.2,0.6,0.2,0.8,0
								S35.4,20.2,35.1,19.9z"/>
						</g>
					</g>
				</g>
			</g>
		</g>
	</g>
	<g>
		<path style="fill:#E71D73;" d="M94.2,48.5c-0.1,19-12.1,36.5-30,43c-18.1,6.6-38.7,0.9-51-13.9C0.9,62.8-0.6,41.2,9.4,24.8
			C19.3,8.5,38.8-0.1,57.6,3.7c18.5,3.8,33,19,36.1,37.6C94,43.6,94.2,46.1,94.2,48.5c0,1.4,2.2,1.4,2.2,0
			c-0.1-20-12.7-38.2-31.5-45.1C46-3.5,24.1,2.5,11.4,18.1C-1.3,33.6-3,56.1,7.4,73.4C17.8,90.5,38.3,99.4,58,95.5
			c19.4-3.9,34.8-20,37.8-39.5c0.4-2.5,0.6-5,0.6-7.5C96.4,47.1,94.2,47.1,94.2,48.5z"/>
	</g>
</g>
</svg>
