<svg xmlns="http://www.w3.org/2000/svg" xmlns:xlink="http://www.w3.org/1999/xlink" id="Capa_1" x="0px" y="0px" viewBox="0 0 108.9 108.9" style="enable-background:new 0 0 108.9 108.9;" xml:space="preserve"><g>	<circle style="fill:#E71D73;" cx="54.5" cy="54.5" r="54.5"></circle>	<g>		<path style="fill:#FFFFFF;" d="M18,85.6c0-20.8,0-41.5,0-62.3c1-2.3,2.8-3.2,5.3-3.2c20.9,0,41.8,0,62.7,0c0.4,0,0.9,0,1.3,0.1   c2.3,0.4,3.8,2.2,3.8,4.7c0,19.6,0,39.1,0,58.7c0,3.3-1.8,5-5,5c-14.9,0-29.8,0-44.8,0c-6.2,0-12.5,0-18.7,0c-2,0-3.5-1-4.3-2.8   C18.1,85.8,18,85.7,18,85.6z M88.8,35.1c-0.4,0-0.7,0-1,0c-19,0-38,0-57,0c-0.3,0-0.6,0-0.9,0c-0.6-0.1-0.9-0.5-0.9-1   c0-0.6,0.3-1,0.9-1c0.3-0.1,0.6,0,0.9,0c19,0,38.1,0,57.1,0c0.3,0,0.6,0,1,0c0-2.7,0-5.2,0-7.7c0-2.1-0.8-2.9-2.9-2.9   c-21,0-42,0-63,0c-0.2,0-0.4,0-0.6,0c-1.3,0-2.3,1-2.3,2.3c0,2.6,0,5.3,0,7.9c0,0.1,0,0.2,0.1,0.4c0.3,0,0.6,0,0.9,0   c1.6,0,3.2,0,4.9,0c0.8,0,1.2,0.4,1.2,1.1c0,0.6-0.4,1-1.2,1c-1.1,0-2.3,0-3.4,0c-0.8,0-1.6,0-2.4,0c0,0.3,0,0.6,0,0.9   c0,15.9,0,31.9,0,47.8c0,1.9,0.9,2.8,2.8,2.8c21.1,0,42.2,0,63.2,0c1.9,0,2.8-0.9,2.8-2.8c0-15.9,0-31.9,0-47.8   C88.8,35.7,88.8,35.4,88.8,35.1z"></path>		<path style="fill:#FFFFFF;" d="M53.3,66c0-1.5,0-2.9,0-4.4c-0.3,0-0.5,0-0.8,0c-6.1,0-12.1,0-18.2,0c-1.2,0-1.3,0.2-1.3,1.3   c0,1,0,2,0,3.1c1.3,0,2.5,0,3.8,0c2.1,0,3.3,1.2,3.3,3.3c0,3.2,0,6.4,0,9.6c0,2.1-1.2,3.3-3.3,3.3c-3.2,0-6.5,0-9.7,0   c-2,0-3.2-1.2-3.2-3.2c0-3.2,0-6.5,0-9.7c0-2,1.2-3.2,3.3-3.2c1.2,0,2.5,0,3.8,0c0-1.2,0-2.3,0-3.3c0-2.1,1.1-3.3,3.3-3.3   c6.1,0,12.1,0,18.2,0c0.3,0,0.6,0,1,0c0-1.5,0-3,0-4.5c-0.3,0-0.6,0-0.9,0c-4.7,0-9.4,0-14.1,0c-2.5,0-4.1-1.5-4.1-4   c0-2.6,0-5.1,0-7.7c0-2.5,1.6-4,4-4c10.8,0,21.6,0,32.3,0c2.5,0,4,1.5,4,4c0,2.6,0,5.1,0,7.7c0,2.5-1.6,4-4.1,4   c-4.7,0-9.4,0-14.1,0c-0.3,0-0.6,0-0.9,0c0,1.5,0,3,0,4.5c0.3,0,0.6,0,0.9,0c6,0,12,0,18,0c2.4,0,3.5,1.1,3.5,3.5c0,1,0,2,0,3.1   c1.3,0,2.5,0,3.8,0c2,0,3.2,1.2,3.2,3.2c0,3.2,0,6.5,0,9.7c0,2-1.2,3.2-3.2,3.2c-3.3,0-6.5,0-9.8,0c-2,0-3.2-1.2-3.2-3.1   c0-3.3,0-6.6,0-9.9c0-2,1.2-3.2,3.2-3.2c1.2,0,2.5,0,3.8,0c0-1.3,0-2.6,0-3.9c0-0.2-0.4-0.4-0.6-0.6c-0.2-0.1-0.4,0-0.6,0   c-6.1,0-12.1,0-18.2,0c-0.2,0-0.5,0-0.8,0c0,1.5,0,2.9,0,4.5c1.2,0,2.3,0.1,3.5,0c2.3-0.2,3.6,1.5,3.5,3.5c-0.1,3.1,0,6.2,0,9.4   c0,2.2-1.2,3.3-3.4,3.3c-0.9,0-1.7,0-2.6,0c-0.7,0-1.1-0.4-1.1-1c0-0.6,0.4-1.1,1.1-1.1c0.9,0,1.8,0,2.7,0c0.8,0,1.1-0.3,1.1-1   c0-3.3,0-6.5,0-9.8c0-0.8-0.3-1.1-1.1-1.1c-3.3,0-6.5,0-9.8,0c-0.8,0-1.1,0.3-1.1,1.1c0,3.3,0,6.5,0,9.8c0,0.8,0.3,1,1,1   c0.9,0,1.9,0,2.8,0c0.9,0,1.3,0.4,1.3,1.1c0,0.7-0.4,1.1-1.3,1.1c-1,0-2,0-3,0c-1.7,0-3-1.2-3-2.9c0-3.5,0-6.9,0-10.4   c0-1.7,1.3-2.9,3.1-2.9C50.6,66,51.9,66,53.3,66z M54.4,41.3c-5.4,0-10.7,0-16.1,0c-1.5,0-2,0.6-2,2c0,2.5,0,4.9,0,7.4   c0,1.5,0.6,2,2,2c10.7,0,21.4,0,32,0c1.5,0,2-0.6,2-2c0-2.5,0-4.9,0-7.4c0-1.6-0.5-2.1-2.1-2.1C65,41.3,59.7,41.3,54.4,41.3z    M32,80.1c1.6,0,3.2,0,4.8,0c0.8,0,1.1-0.2,1.1-1.1c0-3.3,0-6.5,0-9.8c0-0.8-0.3-1.1-1.1-1.1c-3.3,0-6.5,0-9.8,0   c-0.8,0-1.1,0.3-1.1,1.1c0,3.3,0,6.5,0,9.8c0,0.8,0.3,1.1,1.1,1.1C28.7,80.1,30.3,80.1,32,80.1z M82.8,74.1c0-1.6,0-3.2,0-4.8   c0-0.9-0.2-1.2-1.1-1.2c-3.2,0-6.5,0-9.7,0c-0.8,0-1.1,0.2-1.1,1.1c0,3.2,0,6.5,0,9.7c0,0.9,0.2,1.1,1.1,1.1c3.2,0,6.5,0,9.7,0   c0.8,0,1.1-0.3,1.1-1.1C82.8,77.3,82.8,75.7,82.8,74.1z"></path>		<path style="fill:#FFFFFF;" d="M69.4,26.6c4.1,0,8.3,0,12.4,0c0.2,0,0.5,0,0.7,0c0.5,0.1,0.9,0.5,0.9,0.9c0,0.4-0.4,0.8-0.7,1   c-0.2,0.2-0.6,0.1-0.9,0.1c-8.3,0-16.7,0-25,0c-0.1,0-0.1,0-0.2,0c-0.9,0-1.4-0.4-1.4-1.1c0-0.6,0.5-1,1.3-1   C60.9,26.6,65.2,26.6,69.4,26.6z"></path>		<path style="fill:#FFFFFF;" d="M31,27.7c0,2-1.6,3.6-3.6,3.6c-2,0-3.6-1.6-3.6-3.6c0-2,1.6-3.6,3.6-3.6C29.4,24.1,31,25.7,31,27.7   z M27.4,29.1c0.8,0,1.4-0.6,1.4-1.4c0-0.8-0.6-1.4-1.4-1.4c-0.8,0-1.5,0.6-1.5,1.4C26,28.4,26.6,29.1,27.4,29.1z"></path>		<path style="fill:#FFFFFF;" d="M35.9,31.2c-2,0-3.6-1.6-3.6-3.6c0-2,1.6-3.6,3.6-3.6c2,0,3.6,1.6,3.6,3.6   C39.5,29.7,37.9,31.2,35.9,31.2z M36,29.1c0.8,0,1.4-0.7,1.4-1.5c0-0.8-0.7-1.4-1.4-1.4c-0.8,0-1.4,0.6-1.4,1.4   C34.5,28.5,35.1,29.1,36,29.1z"></path>		<path style="fill:#FFFFFF;" d="M44.5,31.2c-2,0-3.6-1.6-3.6-3.6c0-2,1.6-3.6,3.6-3.6c2,0,3.6,1.6,3.6,3.6   C48.1,29.6,46.5,31.2,44.5,31.2z M44.4,29.1c0.8,0,1.5-0.6,1.5-1.4c0-0.8-0.7-1.5-1.5-1.5c-0.8,0-1.4,0.6-1.4,1.4   C43,28.4,43.6,29.1,44.4,29.1z"></path>	</g></g></svg>