<?xml version="1.0" encoding="utf-8"?>
<!-- Generator: Adobe Illustrator 26.2.1, SVG Export Plug-In . SVG Version: 6.00 Build 0)  -->
<svg version="1.1" id="Capa_1" xmlns="http://www.w3.org/2000/svg" xmlns:xlink="http://www.w3.org/1999/xlink" x="0px" y="0px"
	 viewBox="0 0 97 97" style="enable-background:new 0 0 97 97;" xml:space="preserve">
<g>
	<path style="fill:#E71D73;" d="M94.2,48.5c-0.1,19-12.1,36.5-30,43c-18.1,6.6-38.7,0.9-51-13.9C0.9,62.8-0.6,41.2,9.4,24.8
		C19.3,8.5,38.8-0.1,57.6,3.7c18.5,3.8,33,19,36.1,37.6C94,43.6,94.2,46.1,94.2,48.5c0,1.4,2.2,1.4,2.2,0
		c-0.1-20-12.7-38.2-31.5-45.1C46-3.5,24.1,2.5,11.4,18.1C-1.3,33.6-3,56.1,7.4,73.4C17.8,90.5,38.3,99.4,58,95.5
		c19.4-3.9,34.8-20,37.8-39.5c0.4-2.5,0.6-5,0.6-7.5C96.4,47.1,94.2,47.1,94.2,48.5z"/>
</g>
<g>
	<path style="fill:#E71D73;" d="M31.8,38.3c-2.4,0-4.8,0-7.3,0c0,7.5,0,14.9,0,22.4c0.3-0.1,0.6-0.2,0.9-0.3
		c1.9-0.9,3.7-1.9,5.6-2.7c0.7-0.3,0.9-0.8,0.9-1.5c0-3.6,0-7.1,0-10.7c0-0.7-0.1-1.5,0-2.2c0.1-0.4,0.5-0.8,0.8-1.2
		c0.3,0.4,0.8,0.8,0.9,1.2c0.1,2.4,0,4.8,0,7.2c0,1.7,0.1,2,1.7,1.6c1.9-0.4,3.7-1.4,5.5-2.3c0.3-0.2,0.3-1.2,0.3-1.8
		c0-2.2,0-2.4,2.3-2.2c2.1,0.1,3.9-0.4,5.6-1.6c1.2-0.9,2.6-1.6,3.8-2.4c0.9-0.6,1.6-0.6,2.5,0c1.4,0.9,2.9,1.7,4.2,2.7
		c1.4,1,2.8,1.4,4.5,1.3c2.8-0.1,2.8,0,2.8,2.9c0,2.5,0,4.9,0,7.4c0,0.9,0.2,1.3,1,1.7c2.9,1.4,5.8,2.8,8.6,4.3
		c0.6,0.3,0.9,0.9,1.4,1.3c-0.5,0.4-1,0.7-1.7,1.3c0,3.3,0,6.9,0,10.1c0.8,0.7,1.7,1.2,1.6,1.6c-0.1,1.2-1.2,0.8-1.9,0.8
		c-17.7,0-35.4,0-53.1,0c-0.2,0-0.5,0.1-0.7,0c-0.5-0.2-1.2-0.4-1.3-0.7c-0.2-0.8,0.5-0.9,1.2-1c0.1,0,0.2-0.1,0.5-0.1
		c0-3.6,0-7.2,0-10.9c-0.2,0-0.5,0-0.7-0.1c-0.3-0.2-0.9-0.4-0.9-0.7c-0.1-0.3,0.3-0.9,0.6-1c1.1-0.4,1.2-1.2,1.2-2.2
		c0-7.2,0-14.4,0-21.6c0-0.8-0.2-1.6,0.7-2.2c0.3-0.2,0.1-1.2,0.2-1.7c0.1-0.6,0.5-1.2,0.7-1.8c0.1-0.3,0.2-0.6,0.2-1
		c0-1.4,0-2.7,0-4.1c0-0.9-0.4-2.1,1-2.5c0.2-0.1,0.3-0.6,0.3-1c0.4-1.7,0.8-3.4,1.3-5.1c0.1-0.4,0.6-0.8,0.9-1.1
		c0.3,0.4,0.8,0.7,1,1.2c0.4,1.4,0.7,2.8,1.1,4.2c0.2,0.8,0.1,1.9,1.3,2.3c0.2,0.1,0.3,0.7,0.3,1.1c0,1.3,0,2.6,0,4
		c0,0.9-0.3,1.9,0.7,2.6c0.2,0.1,0.2,0.7,0.2,1c0.1,1-0.1,1.9,0.7,2.8c0.4,0.5,0.1,1.7,0.1,2.5c0,0.2-0.5,0.4-0.7,0.4
		c-0.2,0-0.6-0.2-0.7-0.4C32,39.2,31.9,38.8,31.8,38.3z M65.2,64.2c0,3.7,0,7.4,0,11.1c0.6,0,1.2,0,1.9,0c0-1.3,0-2.4,0-3.6
		c0.1-4.1-0.6-3.6,3.7-3.7c1.2,0,1.8,0.4,1.7,1.7c-0.1,1.9,0,3.7,0,5.6c1.9,0.3,1.9,0.3,2-1.3c0-1.3,0-2.6,0-4c0-1.9,0-3.7,0-5.7
		c-1.6,0-2.9,0.1-4.3,0c-0.4,0-0.8-0.5-1.3-0.8c0.4-0.3,0.8-0.8,1.2-0.9c0.9-0.1,1.8,0,2.6,0c-1.8-1.2-3.7-2.2-5.6-3.1
		c-0.9-0.4-1.9-0.7-2.9-0.7c-9.3,0-18.6,0.2-27.9-0.1c-4.1-0.1-7,2.2-10.4,3.7c0.4,0.2,0.8,0.2,1.2,0.2c12.6,0,25.1,0,37.7,0
		c0.3,0,0.7-0.1,0.9,0c0.4,0.2,0.7,0.6,1.1,0.9c-0.3,0.3-0.6,0.6-1,0.9C65.8,64.2,65.6,64.1,65.2,64.2z M65.2,47.6
		c-1.5-0.1-3,0-4.2-0.4c-1.3-0.4-2.5-1.3-3.6-2.2c-2.2-2-4.2-1.9-6.5,0c-2.1,1.8-4.6,3-7.6,2.6c-0.1,0-0.1,0.1-0.2,0.1c0,3,0,6,0,9
		c1.6,0,3,0,4.6,0c0-1.4,0-2.7,0-4c0-1,0.4-1.5,1.4-1.4c3.3,0,6.7,0,10,0c1.1,0,1.5,0.5,1.5,1.5c0,1.3,0,2.6,0,3.9
		c1.6,0,3.1,0,4.6,0C65.2,53.6,65.2,50.7,65.2,47.6z M33.8,75.2c3.1,0,6.1,0,9.2,0c0-3.7,0-7.4,0-11c-3.1,0-6.1,0-9.2,0
		C33.8,67.9,33.8,71.5,33.8,75.2z M24.5,64.2c0,3.6,0,7,0,10.5c0,0.2,0.3,0.6,0.5,0.6c2.3,0,4.6,0,6.9,0c0-3.8,0-7.5,0-11.1
		C29.4,64.2,27.1,64.2,24.5,64.2z M48.5,64.2c0,3.6,0,7.1,0,10.6c0,0.2,0.7,0.6,1.1,0.5c0.3,0,0.8-0.5,0.8-0.8
		c0.1-1.7,0.1-3.4,0-5.1c0-1,0.4-1.4,1.4-1.4c1.5,0,3,0,4.5,0c1,0,1.4,0.4,1.4,1.4c0,1.7,0,3.3,0,5c0,0.7,0.2,1,1,1c0.7,0,1-0.2,1-1
		c0-1.1,0-2.1,0-3.2c0-2.3,0-4.6,0-7C55.9,64.2,52.3,64.2,48.5,64.2z M33.8,56.7c2.5,0,4.9,0,7.3,0c0-1.7,0-3.2,0-4.9
		c-2.5,1.1-4.5,2.8-7.3,2C33.8,55,33.8,55.8,33.8,56.7z M61.6,64.2c0,3.7,0,7.4,0,11.1c0.7,0,1.2-0.1,1.8-0.1c0-3.8,0-7.4,0-11
		C62.7,64.2,62.2,64.2,61.6,64.2z M44.9,64.2c0,3.8,0,7.4,0,11.1c0.6,0,1.2,0,1.8,0c0-3.7,0-7.4,0-11.1C46,64.2,45.5,64.2,44.9,64.2
		z M30,32.7c0-1.9,0-3.7,0-5.4c-1.3,0-2.4,0-3.6,0c0,1.9,0,3.6,0,5.4C27.7,32.7,28.8,32.7,30,32.7z M55.9,69.7c-1.3,0-2.4,0-3.6,0
		c0,1.9,0,3.6,0,5.5c1.2,0,2.4,0,3.6,0C55.9,73.4,55.9,71.6,55.9,69.7z M69,69.7c0,1.9,0,3.7,0,5.7c0.7-0.4,1.7,0.4,1.8-0.9
		c0.1-1.6,0-3.2,0-4.9C70.1,69.7,69.6,69.7,69,69.7z M25.5,36.4c1.9,0,3.7,0,5.5,0c0-0.6,0-1.2,0-1.8c-1.9,0-3.6,0-5.5,0
		C25.5,35.2,25.5,35.8,25.5,36.4z M58.7,56.7c0-1.2,0-2.4,0-3.6c-0.6,0-1.2,0-1.8,0c0,1.2,0,2.4,0,3.6
		C57.5,56.7,58.1,56.7,58.7,56.7z M55,53.1c-0.7,0-1.2,0-1.8,0c0,1.2,0,2.4,0,3.6c0.6,0,1.2,0,1.8,0C55,55.5,55,54.3,55,53.1z
		 M51.3,53.1c-0.7,0-1.2,0-1.8,0c0,1.3,0,2.4,0,3.6c0.6,0,1.2,0,1.8,0C51.3,55.4,51.3,54.3,51.3,53.1z M27.5,25.3c0.5,0,0.9,0,1.4,0
		c-0.2-0.8-0.4-1.5-0.6-2.2c-0.1,0-0.2,0-0.2,0C27.9,23.8,27.7,24.5,27.5,25.3z"/>
	<path style="fill:#E71D73;" d="M26.9,48c0.6-0.6,0.9-0.9,1.3-1.3c0.3,0.4,0.8,0.9,0.8,1.3c0,0.4-0.5,0.8-0.8,1.3
		C27.9,48.9,27.5,48.5,26.9,48z"/>
	<path style="fill:#E71D73;" d="M55.4,48.1c-0.6,0.5-1,0.8-1.4,1.1c-0.3-0.5-0.7-1-0.8-1.4c0-0.4,0.6-0.8,0.9-1.1
		C54.5,47.1,54.9,47.5,55.4,48.1z"/>
	<path style="fill:#E71D73;" d="M39.3,69.7c0,0.2,0.1,0.5,0,0.6c-0.2,0.4-0.6,0.7-0.9,1.1c-0.3-0.3-0.7-0.6-0.8-1
		c-0.1-0.5-0.1-1.1,0-1.6c0.1-0.4,0.6-0.6,0.9-0.9c0.3,0.3,0.6,0.6,0.8,1C39.3,69.2,39.3,69.5,39.3,69.7
		C39.3,69.7,39.3,69.7,39.3,69.7z"/>
	<path style="fill:#E71D73;" d="M27.4,70.5c0-0.6-0.1-1.2,0-1.7c0.1-0.3,0.5-0.8,0.8-0.8c0.3,0,0.8,0.4,0.9,0.7
		c0.1,1.3,0.1,2.5,0,3.8c0,0.3-0.5,0.8-0.7,0.7c-0.3-0.1-0.8-0.4-0.9-0.8C27.3,71.9,27.4,71.2,27.4,70.5
		C27.4,70.5,27.4,70.5,27.4,70.5z"/>
</g>
</svg>
