<svg xmlns="http://www.w3.org/2000/svg" xmlns:xlink="http://www.w3.org/1999/xlink" id="Capa_1" x="0px" y="0px" viewBox="0 0 108.9 108.9" style="enable-background:new 0 0 108.9 108.9;" xml:space="preserve"><g>	<circle style="fill:#E71D73;" cx="54.5" cy="54.5" r="54.5"></circle>	<g>		<path style="fill:#FFFFFF;" d="M40.3,71.1c-3.6-1.3-7.1-2.7-10.7-4c-0.8-0.3-1.1-0.6-1.1-1.5c0.1-1.8,0-3.7,0-5.5   c0-0.5,0.1-0.7,0.6-0.9c9.2-3.4,18.4-6.8,27.6-10.2c0.3-0.1,0.7-0.1,1,0c9.2,3.4,18.3,6.8,27.5,10.2c0.5,0.2,0.7,0.4,0.7,1   c0,3.4,0,6.7,0,10.1c0,0.5,0.1,0.8,0.6,1c2.5,1.1,3.2,3.9,1.5,6.1c-0.3,0.4-0.3,0.7-0.1,1.1c1,2.9,2.1,5.8,3.1,8.6   c-3.2,2.5-8.6,2.5-12.3,0c0.3-0.8,0.5-1.5,0.8-2.3c0.8-2.2,1.6-4.3,2.3-6.5c0.1-0.3,0-0.7-0.2-1c-1.6-2.1-1-5,1.5-6.1   c0.5-0.2,0.6-0.4,0.6-1c0-0.9,0-1.8,0-2.9c-3.3,1.2-6.4,2.4-9.6,3.6c1,4,2,8,3.1,12c-1.9,0.7-3.8,1.4-5.7,2.1   c-4.5,1.6-9,3.3-13.5,4.9c-0.4,0.1-0.9,0.2-1.3,0.1c-6.4-2.3-12.7-4.6-19.1-6.8c-0.1,0-0.2-0.1-0.4-0.2   C38.3,79.1,39.3,75.1,40.3,71.1z M83.9,63.1c0-0.5,0-1,0-1.5c0.1-0.5-0.2-0.8-0.6-0.9c-8.5-3.1-17-6.3-25.5-9.4   c-0.3-0.1-0.7-0.1-1,0c-8.5,3.2-17,6.3-25.5,9.5c-0.4,0.2-0.6,0.4-0.6,0.8c0,0.9,0.1,1.8,0,2.7c-0.1,0.8,0.2,1.2,1,1.4   c8.2,3,16.4,6.1,24.5,9.1c0.8,0.3,1.4,0.3,2.1,0c7.8-2.9,15.6-5.8,23.5-8.8C83.9,65.2,83.9,65.2,83.9,63.1z M39.8,81.8   c0.2,0.1,0.3,0.2,0.4,0.2c5.5,2,11.1,4,16.6,5.9c0.3,0.1,0.8,0.1,1.1,0c4.2-1.5,8.4-3,12.6-4.5c1.4-0.5,2.9-1,4.3-1.6   c-0.9-3.4-1.7-6.7-2.6-10c-0.4,0.1-0.7,0.2-1,0.3c-4.4,1.6-8.8,3.3-13.3,4.9c-0.4,0.2-1,0.2-1.4,0c-3.1-1.1-6.3-2.3-9.4-3.5   c-1.6-0.6-3.2-1.2-4.9-1.8C41.4,75.2,40.6,78.5,39.8,81.8z M88.4,86c-0.9-2.4-1.7-4.8-2.6-7.2c-0.7,0-1.2,0-1.9,0   c-0.8,2.4-1.7,4.7-2.6,7.2C83.8,87,86.1,87,88.4,86z M86.8,74.9c0-1.1-0.9-1.9-2-1.9c-1.1,0-1.9,0.8-1.9,1.9c0,1.1,0.9,1.9,2,1.9   C86,76.8,86.8,76,86.8,74.9z"></path>		<path style="fill:#FFFFFF;" d="M20,81.4c4.5,0,8.9,0,13.4,0c0,0.7,0,1.3,0,2c-5.1,0-10.3,0-15.5,0c0-21.5,0-43.1,0-64.7   c16.5,0,33,0,49.6,0c0,9.6,0,19.1,0,28.7c-0.7,0-1.3,0-2,0c0-8.9,0-17.7,0-26.6c-15.2,0-30.3,0-45.5,0C20,41,20,61.1,20,81.4z"></path>		<path style="fill:#FFFFFF;" d="M26.9,44.2c1.5,0.7,3,1.1,4.6,0.7c1.4-0.4,1.9-1.2,1.8-2.4c-0.1-0.9-0.6-1.5-1.4-1.7   c-1-0.3-2-0.6-2.9-0.8c-2.5-0.6-3.8-2.3-3.6-4.5c0.2-2,1.4-3.3,3.3-3.9c0.6-0.2,0.7-0.5,0.7-1c0-0.7,0-1.4,0-2.1   c0.7,0,1.3,0,2.1,0c0,0.9,0,1.9,0,2.8c1.4,0.3,2.7,0.8,3.7,1.8c-0.5,0.5-0.9,1-1.2,1.4c-0.9-0.4-1.7-0.8-2.5-1   c-1.2-0.3-2.3,0-3.1,0.8c-1.3,1.2-1,3,0.7,3.6c0.8,0.3,1.7,0.4,2.6,0.7c1.9,0.5,3.3,1.5,3.8,3.5c0.5,2-0.2,3.6-2,4.6   c-0.5,0.3-1.1,0.5-1.8,0.8c0,0.9,0,1.8,0,2.8c-0.7,0-1.3,0-2.1,0c0-0.8,0-1.5,0-2.2c0-0.5-0.2-0.6-0.6-0.7   c-0.9-0.2-1.8-0.5-2.8-0.9C26.3,45.4,26.6,44.9,26.9,44.2z"></path>		<path style="fill:#FFFFFF;" d="M41,38.8c0-0.7,0-1.3,0-2c6.3,0,12.5,0,18.8,0c0,0.6,0,1.3,0,2C53.6,38.8,47.3,38.8,41,38.8z"></path>		<path style="fill:#FFFFFF;" d="M41,45.2c0-0.7,0-1.3,0-2c6.3,0,12.5,0,18.8,0c0,0.7,0,1.3,0,2C53.6,45.2,47.3,45.2,41,45.2z"></path>		<path style="fill:#FFFFFF;" d="M59.8,30.4c0,0.7,0,1.3,0,2c-3.5,0-6.9,0-10.4,0c0-0.7,0-1.3,0-2C52.9,30.4,56.4,30.4,59.8,30.4z"></path>	</g></g></svg>