<?xml version="1.0" encoding="utf-8"?>
<!-- Generator: Adobe Illustrator 26.2.1, SVG Export Plug-In . SVG Version: 6.00 Build 0)  -->
<svg version="1.1" id="Capa_1" xmlns="http://www.w3.org/2000/svg" xmlns:xlink="http://www.w3.org/1999/xlink" x="0px" y="0px"
	 viewBox="0 0 97 97" style="enable-background:new 0 0 97 97;" xml:space="preserve">
<g>
	<circle style="fill:#FFFFFF;" cx="48.6" cy="48.5" r="46.9"/>
</g>
<g>
	<path style="fill:#E71D73;" d="M94.2,48.5c-0.1,19-12.1,36.5-30,43c-18.1,6.6-38.7,0.9-51-13.9C0.9,62.8-0.6,41.2,9.4,24.8
		C19.3,8.5,38.8-0.1,57.6,3.7c18.5,3.8,33,19,36.1,37.6C94,43.6,94.2,46.1,94.2,48.5c0,1.4,2.2,1.4,2.2,0
		c-0.1-20-12.7-38.2-31.5-45.1C46-3.5,24.1,2.5,11.4,18.1C-1.3,33.6-3,56.1,7.4,73.4C17.8,90.5,38.3,99.4,58,95.5
		c19.4-3.9,34.8-20,37.8-39.5c0.4-2.5,0.6-5,0.6-7.5C96.4,47.1,94.2,47.1,94.2,48.5z"/>
</g>
<g>
	<g>
		<g>
			<g>
				<rect x="48.6" y="52.5" style="fill:#E71D73;" width="1" height="12"/>
			</g>
			<g>
				
					<rect x="46" y="59" transform="matrix(0.4352 -0.9003 0.9003 0.4352 -24.4745 79.974)" style="fill:#E71D73;" width="11.1" height="1"/>
			</g>
			<g>
				
					<rect x="48.5" y="61.6" transform="matrix(0.8981 -0.4398 0.4398 0.8981 -21.9275 29.6508)" style="fill:#E71D73;" width="9.1" height="1"/>
			</g>
			<g>
				
					<rect x="46.1" y="54" transform="matrix(0.9003 -0.4352 0.4352 0.9003 -21.242 26.2335)" style="fill:#E71D73;" width="1" height="11.1"/>
			</g>
			<g>
				
					<rect x="44.6" y="57.6" transform="matrix(0.4398 -0.8981 0.8981 0.4398 -30.5284 75.3485)" style="fill:#E71D73;" width="1" height="9.1"/>
			</g>
			<g>
				<g>
					<path style="fill:#E71D73;" d="M72.8,77.8c-21.2,0,3.1,0-18.1,0c0-0.6,0-1.2,0-1.8c1.6,0,3.2,0,4.9,0c0-0.3,0-0.5,0-0.7
						c0-9.7,0-19.5,0-29.2c0-0.4-0.1-0.7-0.5-1c-1.4-1.1-2.8-2.2-4.2-3.3c-0.2-0.1-0.3-0.4-0.3-0.7c0-2.9,0-3.1,0-6
						c0-0.1,0-0.2,0-0.3c1,0,2.8,0,2.8,0l13.2,0c0,0,1.8,0,2.8,0c0,0.2,0,0.4,0,0.6c0,2.7,0,2.9,0,5.6c0,0.4-0.1,0.6-0.4,0.9
						c-1.4,1.1-2.8,2.2-4.2,3.3c-0.2,0.1-0.4,0.3-0.4,0.5c0,2.1,0,6.4,0,6.4V76h4.2C72.8,76,72.8,77.2,72.8,77.8z M71.7,36.8
						c-6.7,0-8.5,0-15.1,0c0,2,0,1.4,0,3.4c6.7,0,8.4,0,15.1,0C71.7,38.2,71.7,38.8,71.7,36.8z M61.6,45.8c0,8.3,0,21.8,0,30.1
						c1.4,0,0.3,0,1.6,0c0-8.3,0-21.8,0-30.1C61.8,45.8,62.9,45.8,61.6,45.8z M66.7,75.9c0-8.3,0-21.8,0-30.1c-1.4,0-0.2,0-1.6,0
						c0,8.3,0,21.8,0,30.1C66.5,75.9,65.3,75.9,66.7,75.9z M70,42.1c-5.5,0-6.1,0-11.6,0c0.8,0.6,1.5,1.2,2.2,1.8
						c0.2,0.2,0.5,0.3,0.8,0.3c3.5,0,2.1,0,5.5,0c0.2,0,0.4,0,0.5-0.1C68.3,43.5,69.1,42.8,70,42.1z"/>
				</g>
				<g>
					<g>
						<path style="fill:#E71D73;" d="M68.7,36.5h-9.1c-0.4,0-0.8-0.3-0.9-0.7l-1.4-6c-0.1-0.3,0-0.6,0.2-0.8
							c0.2-0.2,0.5-0.4,0.7-0.4H70c0.3,0,0.6,0.1,0.7,0.4c0.2,0.2,0.2,0.5,0.2,0.8l-1.3,6C69.5,36.2,69.2,36.5,68.7,36.5z
							 M60.4,34.6H68l0.9-4.1h-9.4L60.4,34.6z"/>
					</g>
					<g>
						<path style="fill:#E71D73;" d="M62.8,35.5c-0.3,0-0.5-0.2-0.6-0.5l-1.1-5.3c-0.1-0.3,0.1-0.6,0.5-0.7c0.3-0.1,0.6,0.1,0.7,0.5
							l1.1,5.3c0.1,0.3-0.1,0.6-0.5,0.7C62.8,35.5,62.8,35.5,62.8,35.5z"/>
					</g>
					<g>
						<path style="fill:#E71D73;" d="M65.8,35.5c0,0-0.1,0-0.1,0c-0.3-0.1-0.5-0.4-0.5-0.7l1.1-5.3c0.1-0.3,0.4-0.5,0.7-0.5
							c0.3,0.1,0.5,0.4,0.5,0.7L66.3,35C66.3,35.3,66,35.5,65.8,35.5z"/>
					</g>
				</g>
				<g>
					<rect x="66.5" y="18" style="fill:#E71D73;" width="1.2" height="10.9"/>
				</g>
				<g>
					<rect x="61" y="24.7" style="fill:#E71D73;" width="1.2" height="4.2"/>
				</g>
			</g>
			<g>
				<g>
					<polygon style="fill:#E71D73;" points="58.4,77.8 21.4,77.8 21.4,61.1 23.3,61.1 23.3,76 56.5,76 56.5,61.1 58.4,61.1 					"/>
				</g>
				<g>
					<rect x="21.7" y="71.1" style="fill:#E71D73;" width="19.4" height="1.9"/>
				</g>
				<g>
					<rect x="39.7" y="61.1" style="fill:#E71D73;" width="1.9" height="16.2"/>
				</g>
				<g>
					<rect x="33.7" y="61.1" style="fill:#E71D73;" width="1.9" height="16.2"/>
				</g>
				<g>
					<rect x="27.5" y="61.1" style="fill:#E71D73;" width="1.9" height="16.2"/>
				</g>
				<g>
					<path style="fill:#E71D73;" d="M58.4,61.2h-1.9c0-4.3-3.3-7.8-7.4-7.8c-4.1,0-7.4,3.5-7.4,7.8h-1.9c0-5.3,4.2-9.7,9.3-9.7
						C54.2,51.6,58.4,55.9,58.4,61.2z"/>
				</g>
				<g>
					<path style="fill:#E71D73;" d="M35.6,61.2h-1.9c0-5.3,4.2-9.7,9.3-9.7v1.9C38.9,53.5,35.6,56.9,35.6,61.2z"/>
				</g>
				<g>
					<path style="fill:#E71D73;" d="M29.4,61.2h-1.9c0-5.3,4.2-9.7,9.3-9.7v1.9C32.8,53.5,29.4,56.9,29.4,61.2z"/>
				</g>
				<g>
					<path style="fill:#E71D73;" d="M23.3,61.2h-1.9c0-5.3,4.2-9.7,9.3-9.7v1.9C26.6,53.5,23.3,56.9,23.3,61.2z"/>
				</g>
				<g>
					<rect x="30.5" y="51.6" style="fill:#E71D73;" width="18.6" height="1.9"/>
				</g>
				<g>
					<rect x="43.9" y="71.1" style="fill:#E71D73;" width="10.2" height="1.9"/>
				</g>
				<g>
					<rect x="21.7" y="62.9" style="fill:#E71D73;" width="35.8" height="1.9"/>
				</g>
			</g>
			<g>
				<path style="fill:#E71D73;" d="M51,64c0.2-0.3,0.3-0.6,0.3-1c0-1.2-0.9-2.1-2.1-2.1s-2.1,0.9-2.1,2.1c0,0.4,0.1,0.7,0.3,1H51z"
					/>
			</g>
		</g>
		<g>
			<path style="fill:#E71D73;" d="M43.6,43c1.4-0.3,2.8-0.5,4.2-0.9c1.3-0.3,2.3-1.5,2.3-2.8c0-1.4-0.8-2.6-2.2-3
				c-0.5-0.1-1-0.1-1.5,0c-1.1,0.2-2.2,0.4-3.3,0.6c-0.7,0.1-1,0.5-0.9,1.1c0.1,0.5,0.5,0.8,1.2,0.6c1.1-0.2,2.1-0.4,3.2-0.6
				c0.9-0.2,1.5,0.2,1.7,1c0.1,0.7-0.3,1.3-1.2,1.5c-1.4,0.3-2.8,0.6-4.3,0.9c-0.2,0-0.4,0-0.7-0.1c-0.6-0.1-1.2-0.3-1.8-0.2
				c-1.7,0.3-3.4,0.7-5.1,1c-0.5,0.1-1,0.4-1.3,0.9c-0.1,0.1-0.3,0.3-0.5,0.3c-1.7,0.4-3.5,0.7-5.2,1.1c-0.5,0.1-1,0-1.2-0.5
				c-0.8-1.6-1.6-3.3-2.4-4.9c0.7-0.3,1.4-0.5,2,0.2c0.8,0.7,1.6,1.4,2.4,2c0.3,0.2,0.7,0.3,1.1,0.3c3-0.6,6-1.2,9-1.8
				c0.7-0.1,1-0.6,0.9-1.1c-0.1-0.5-0.6-0.8-1.3-0.6c-2.7,0.5-5.5,1.1-8.2,1.7c-0.4,0.1-0.7,0-1-0.3c-0.8-0.7-1.7-1.4-2.5-2.1
				c-0.5-0.4-0.9-0.5-1.5-0.4c-0.6,0.1-1.2,0.2-1.7,0.4c-1,0.2-1.4,1.2-1,2c0.9,1.8,1.7,3.6,2.6,5.4c0.6,1.1,1.8,1.7,3,1.4
				c1.6-0.3,3.2-0.6,4.8-1c0.2,0,0.4-0.1,0.7-0.1c0.1,0.3,0.1,0.6,0.2,0.8c0.2,0.9,0.9,1.4,1.8,1.2c1.8-0.3,3.7-0.7,5.5-1.1
				C42.9,45.6,43.6,44.6,43.6,43z M35.8,43.7c1.7-0.3,3.3-0.7,5-1c0.6-0.1,1,0.1,1.1,0.6c0.1,0.4-0.2,0.8-0.8,0.9
				c-1.4,0.3-2.8,0.6-4.2,0.8c-0.2,0-0.5,0.1-0.7,0.1C36,44.7,35.9,44.2,35.8,43.7z"/>
		</g>
	</g>
</g>
</svg>
