<svg xmlns="http://www.w3.org/2000/svg" xmlns:xlink="http://www.w3.org/1999/xlink" id="Capa_1" x="0px" y="0px" viewBox="0 0 97 97" style="enable-background:new 0 0 97 97;" xml:space="preserve"><g>	<circle style="fill:#E71D73;" cx="48.5" cy="48.5" r="48.5"></circle>	<g>		<g>			<path style="fill:#FFFFFF;" d="M84.9,62.4c-0.9-5.4-4.4-8.7-9.7-10.2c0-0.4,0-0.8,0-1.2c0-8.3,0-16.6,0-24.8    c0-2.9-1.3-4.2-4.2-4.2c-17.1,0-34.3,0-51.4,0c-2.9,0-4.2,1.3-4.2,4.2c0,11.6,0,23.1,0,34.7c0,2.9,1.5,4.4,4.4,4.4    c5.6,0,11.1,0,16.7,0c0.3,0,0.7,0,1,0c0.3,1.4-0.1,3.2-0.9,4.8c-0.5,0.9-1,1.4-2.1,1.2c-0.6-0.1-1.3-0.1-1.9,0.1    c-1.7,0.4-2.5,1.1-2.4,3.4c0,0.7,0,0.9,0.3,1.3c0.2,0.4,0.4,0.8,0.8,1c0.5,0.3,1.1,0.4,1.8,0.5c1,0.1,24.6,0,24.8,0    c0.4,0,1.1-0.3,1.3-0.4c0.4-0.3,0.6-0.6,0.8-1c0.3-0.6,0.3-1.2,0.3-2.1c-0.1-1.5-1.4-2.7-2.9-2.8c-0.3,0-0.7-0.1-1,0    c-1.5,0.3-2.3-0.5-2.9-1.8c-0.6-1.3-1-2.7-0.7-4.2c2.1,0,4.2,0,6.2,0c0.2,0,0.5,0.3,0.5,0.5c0.3,3.8,2,6.8,5.1,9.3    c0.5,0.3,1,0.7,1.6,1c1.4,0.8,3.1,1.3,5.2,1.5c0.2,0,0.4,0,0.6,0c0.3,0,0.7,0,1.3-0.1c1-0.1,2-0.3,2.4-0.4    c0.5-0.1,1.3-0.4,1.6-0.6c0.7-0.3,1.3-0.7,1.8-1C83.7,72,85.8,67.8,84.9,62.4z M19.4,23.9c17.1,0,34.2,0,51.3,0    c1.7,0,2.2,0.5,2.2,2.2c0,8.3,0,16.6,0,24.9c0,0.3,0,0.6,0,0.9c-1.1,0.1-2,0.1-3.1,0.2c0-0.4,0-0.7,0-1.1c0-7.5,0-15,0-22.5    c0-1.5-0.2-1.6-1.6-1.6c-15.5,0-30.9,0-46.4,0c-1.4,0-1.6,0.2-1.6,1.6c0,8.9,0,17.9,0,26.8c0,0.4,0,0.8,0,1.3c-1,0-2,0-3,0    c0-0.3-0.1-0.6-0.1-1c0-9.8,0-19.6,0-29.4C17.2,24.3,17.6,23.9,19.4,23.9z M67.9,51.7c0,0.6-0.3,0.9-0.8,1.2    c-2.6,1.2-3.2,2-4.3,3.1c-0.3,0.3-0.7,0.5-1,0.5c-12.9,0-25.9,0-38.8,0c-0.2,0-0.3,0-0.6,0c0-9.3,0-18.5,0-27.7    c15.2,0,30.3,0,45.6,0c0,0.3,0,0.6,0,0.9C67.9,37.1,67.9,44.4,67.9,51.7z M56.6,73.1c0.4,0,0.9,0,1.2,0.3c0.3,0.2,0.5,0.7,0.4,1    c-0.1,0.3-0.5,0.7-0.8,0.9c-0.3,0.1-0.6,0.1-1,0.1c-7.5,0-15.1,0-22.6,0c-0.2,0-0.3,0-0.5,0c-0.8,0-1.4-0.2-1.4-1.1    c0-0.8,0.7-1.1,1.5-1.1c3.9,0,7.8,0,11.7,0C49,73.1,52.8,73.1,56.6,73.1z M38.4,71.1c0.5-1.9,1-3.8,1.5-5.9c3.4,0,7.1,0,10.5,0    c0.5,2,1,3.9,1.5,5.9C47.5,71.1,42.9,71.1,38.4,71.1z M59.5,62.6c0,0.2-0.1,0.3-0.2,0.4c-0.2,0.1-0.8,0-1,0    c-12.9,0-25.7,0-38.6,0c-2.1,0-2.4-0.4-2.4-2.4c0-0.7,0-1.3,0-2.1c14.6,0,29.3,0,43.7,0C60.2,59.9,59.8,61.3,59.5,62.6z     M72.3,75.4c-5.9,0.1-10.8-4.8-10.9-10.9c0-5.7,4.8-10.6,10.6-10.7c6,0,10.9,4.8,10.9,10.9C83,70.4,78.2,75.3,72.3,75.4z"></path>		</g>		<path style="fill:#FFFFFF;" d="M71.8,58.2c0-0.2,0-0.9,0-1.1c0.1-0.3,0.8-0.3,0.9,0c0.1,0.2,0,0.9,0,1c1.1,0,2.4,0.3,3.3,0.6   c0.3,0.1,0.3,0.6,0.3,0.9c0,0.6-0.6,0.5-1.1,0.4c-0.7-0.2-1.5-0.3-2.6-0.2c0,1.4,0,3.9,0,3.9s0.4,0.1,0.7,0.2   c0.7,0.2,1.3,0.5,1.9,0.8c1.2,0.6,1.7,1.6,1.6,3c-0.1,1.3-1.1,2.1-2.1,2.7c-0.2,0.1-0.6,0.3-0.9,0.4c-0.4,0.1-1,0.3-1.2,0.3   c0,0,0,0.6,0,1c0,0.1-0.9,0.2-0.9,0c0-0.3,0-0.7,0-1.1c-1.2-0.2-2.1-0.3-3.2-0.8c-0.5-0.2-1.2-0.3-0.9-1.1   c0.3-0.7,0.8-0.5,1.4-0.3c0.8,0.3,1.6,0.4,2.7,0.4c0-1.4,0-3.7,0-3.7s-0.4-0.2-0.6-0.2c-0.5-0.2-0.9-0.4-1.5-0.6   c-1.3-0.5-2-1.5-2-2.9c0-1.4,0.9-2.6,2.2-3C70.5,58.5,70.9,58.4,71.8,58.2z M71.8,59.9c-1.7,0.2-2.4,0.8-2.4,1.8   c0,1,1,1.6,2.4,1.9C71.8,62.4,71.8,61.2,71.8,59.9z M72.6,69.2c1.5,0,2.4-0.6,2.4-1.7c0-0.9-0.9-1.4-2.4-1.8   C72.6,66.8,72.6,68,72.6,69.2z"></path>		<path style="fill:#FFFFFF;" d="M45.1,59.2c0.9,0,1.6,0.7,1.6,1.6c0,0.9-0.7,1.6-1.6,1.6c-0.8,0-1.5-0.7-1.6-1.5   C43.5,59.9,44.2,59.2,45.1,59.2z"></path>		<g>			<path style="fill:#FFFFFF;" d="M29.3,37.2c0.1-0.4,0.4-0.5,0.8-0.7c4.3-1.5,8.7-3.1,13-4.6c0.3-0.1,0.6-0.1,0.9,0    c4.4,1.5,8.7,3.1,13.1,4.6c0.6,0.2,0.8,0.6,0.7,1.1c-0.1,0.3-0.3,0.4-0.5,0.5c-0.4,0.1-0.8,0.3-1.2,0.4c-0.1,0-0.2,0.1-0.2,0.3    c0,2.6,0,3.7,0,6.2c0,0.1,0.1,0.2,0.2,0.2c1,0.5,1.5,1.3,1.5,2.4c0,1.1-0.6,1.8-1.6,2.3c0,0,0,0-0.1,0c0,1,0,2.1,0,3.1    c0,0.4-0.2,0.8-0.6,0.9c-0.5,0.2-1.1-0.2-1.1-0.8c0-1,0-2,0-2.9c0-0.2-0.1-0.3-0.2-0.3c-0.9-0.5-1.4-1.2-1.5-2.2    c0-1.1,0.5-1.8,1.4-2.3c0.2-0.1,0.3-0.2,0.3-0.4c0-2.3,0-3.1,0-5.4c0-0.1,0-0.2,0-0.3c-0.6,0.2-1.1,0.4-1.7,0.6    c-0.5,0.2-0.5,0.2-0.5,0.7c0,1.6,0,3.1,0,4.7c0,0.6-0.2,1.1-0.7,1.5c-0.7,0.6-1.6,0.9-2.4,1.1c-2.3,0.7-4.6,0.8-6.9,0.6    c-1.5-0.1-3.1-0.4-4.5-1c-0.5-0.2-1.1-0.5-1.5-0.9c-0.5-0.3-0.7-0.8-0.7-1.4c0-1.6,0-3.3,0-4.9c0-0.3-0.1-0.4-0.3-0.4    c-1.6-0.6-3.2-1.1-4.8-1.7c-0.4-0.1-0.6-0.3-0.8-0.7C29.3,37.5,29.3,37.4,29.3,37.2z M32.6,37.4c0.1,0.1,0.2,0.1,0.3,0.1    c3.5,1.2,6.9,2.5,10.4,3.7c0.1,0,0.3,0,0.4,0c3-1.1,6-2.1,8.9-3.2c0.6-0.2,1.1-0.4,1.7-0.6c-0.1,0-0.2-0.1-0.2-0.1    c-3.5-1.2-7-2.5-10.5-3.7c-0.1,0-0.3,0-0.4,0c-2.2,0.8-4.4,1.5-6.6,2.3C35.4,36.5,34,36.9,32.6,37.4z M36.9,40.7    c0,0.1,0,0.1,0,0.1c0,1.5,0,3,0,4.4c0,0.1,0.1,0.3,0.2,0.3c0.5,0.2,1,0.5,1.5,0.7c3,0.9,6,0.9,9.1,0.3c0.8-0.2,1.6-0.4,2.3-0.8    c0.2-0.1,0.3-0.3,0.3-0.5c0-1.4,0-2.7,0-4.1c0-0.1,0-0.2,0-0.4c-0.2,0.1-0.2,0.1-0.3,0.1c-2,0.7-3.9,1.4-5.9,2.1    c-0.3,0.1-0.6,0.1-0.9,0c-1.4-0.5-2.9-1-4.3-1.5C38.1,41.2,37.5,41,36.9,40.7z M55,46.9c-0.5,0-0.8,0.4-0.8,0.8    c0,0.5,0.4,0.9,0.9,0.8c0.5,0,0.8-0.4,0.8-0.9C55.8,47.3,55.4,46.9,55,46.9z"></path>		</g>	</g></g></svg>