<?xml version="1.0" encoding="utf-8"?>
<!-- Generator: Adobe Illustrator 26.2.1, SVG Export Plug-In . SVG Version: 6.00 Build 0)  -->
<svg version="1.1" id="Capa_1" xmlns="http://www.w3.org/2000/svg" xmlns:xlink="http://www.w3.org/1999/xlink" x="0px" y="0px"
	 viewBox="0 0 97 97" style="enable-background:new 0 0 97 97;" xml:space="preserve">
<g>
	<circle style="fill:#E71D73;" cx="48.5" cy="48.5" r="48.5"/>
	<g>
		<path style="fill:#FFFFFF;" d="M65.8,58.6c-0.1,2-0.2,2-2.1,2c-1.1,0-2.1,0-3.2,0c-0.8,0-1.2-0.4-1.3-1.2c0-0.9,0-1.9,0-2.8
			c0-0.8,0.4-1.2,1.2-1.2c1.4,0,2.7,0,4.1,0c0.7,0,1.1,0.4,1.2,1c0.3,0,0.7,0,1,0c0-2.7,0-5.4,0-8.1c-0.6,0.8-1.4,0.7-2.2,0.6
			c-1.3-0.2-2,0.3-2.6,1.5c-1.2,2.6-3.2,4.6-5.5,6.3c-0.4,0.3-0.5,0.5-0.5,0.9c0,1.1,0,2.2,0,3.4c2.1,0.6,4.1,1.1,6.2,1.6
			c1.8,0.5,3.6,0.9,5.4,1.4c3.6,1,6,3.5,7.6,6.8c0.9,1.8,1.3,3.7,1.3,5.7c0,1.1-0.4,1.4-1.4,1.4c-17.8,0-35.6,0-53.4,0
			c-1,0-1.4-0.4-1.4-1.4c0.2-5.2,2.4-9.3,7-11.8c1-0.5,2.1-0.8,3.2-1.1c3.2-0.9,6.5-1.7,9.7-2.6c0.2-0.1,0.4-0.1,0.6-0.2
			c0-1.3,0-2.5,0-3.8c0-0.2-0.2-0.4-0.4-0.5c-2.7-2-4.9-4.4-6.2-7.5c-0.1-0.2-0.4-0.4-0.6-0.4c-0.7,0-1.4,0-2.2,0
			c-0.9,0-1.2-0.2-1.5-1.1c-0.5,0-1.1,0-1.6,0c-1.5,0-2.6-1.2-2.7-2.7c0-2.5,0-5,0-7.6c0-1.2,0.6-2,1.7-2.5c0.4-0.2,0.5-0.4,0.5-0.8
			c0-2.5,0-4.9,0.5-7.4c1.9-8.4,9.4-15,18-15.7c10.5-0.9,19.7,5.8,22.1,16.1c0.5,2.3,0.5,4.6,0.5,6.9c0,0.5,0.1,0.8,0.6,1
			c1,0.4,1.5,1.3,1.6,2.3c0,2.6,0,5.2,0,7.8c0,1.1-0.6,1.9-1.6,2.3c-0.5,0.2-0.6,0.5-0.6,1c0,2.9,0,5.8,0,8.6c0,1.1-0.3,1.5-1.5,1.5
			C67,58.6,66.4,58.6,65.8,58.6z M33.4,75.8h30.3l2.2,0c0,0,5.8,0,8.7,0c-0.3-1.1-0.4-2.1-0.8-3c-1.3-3.5-3.6-6-7.3-6.9
			c-3.6-0.9-7.1-1.8-10.6-2.8c-0.4-0.1-0.7,0-1,0.2c-1.8,1.5-3.6,3-5.4,4.5c-0.7,0.6-1.1,0.6-1.8,0c-1.7-1.5-3.5-2.9-5.2-4.4
			c-0.4-0.4-0.8-0.5-1.3-0.3c-3.4,0.9-6.8,1.9-10.2,2.7c-2.4,0.6-4.3,1.8-5.8,3.7c-1.4,1.9-2.2,3.9-2.4,6.3c2.9,0,8.6,0,8.6,0
			L33.4,75.8z M35.6,37.9c0,2.5,0,5,0,7.4c0,0.7,0.2,1.5,0.4,2.2c1.8,4.9,5.3,7.9,10.1,9.6c1,0.3,2.2,0.5,3.3,0.3
			c3.7-0.6,6.5-2.6,9-5.4c1.7-1.9,2.9-4.1,3-6.7c0.1-2.6,0-5.2,0-7.8c-2.7-0.7-5-2.3-6.8-4.5c-3,1.6-6.1,2.7-9.3,3.5
			C42.2,37.3,38.9,37.8,35.6,37.9z M61.4,35.2c0-1.8,0.2-3.5,0-5.2c-1.1-9.8-12.5-14.7-20.4-8.9c-5.1,3.7-5.8,8.9-5.3,14.6
			c0.1,0,0.1,0,0.2,0c0.5,0,1-0.1,1.5-0.1c5.8-0.4,11.4-2,16.6-4.7c1.3-0.7,1.5-0.6,2.3,0.5C57.6,33.3,59.3,34.5,61.4,35.2z
			 M66.8,34.3c0.4-8.7-2.8-15.3-9.6-18.9C50.7,12,44.1,12.3,38,16.6c-6.1,4.2-8.3,10.4-7.8,17.7c0.9-1,2.1-0.3,3.2-0.7
			c-0.3-4.5,0.7-8.6,3.7-12c3-3.4,6.9-5.2,11.4-5.2c3.8,0,7.2,1.3,10,3.8c4,3.6,5.5,8.2,5.1,13.4C64.7,34,65.9,33.3,66.8,34.3z
			 M48.5,65.8c1.8-1.5,3.5-2.9,5.1-4.3c0.1-0.1,0.2-0.3,0.3-0.4c0-0.9,0-1.8,0-2.9c-3.6,1.9-7.2,1.9-10.8,0c0,1,0,1.9,0,2.8
			c0,0.2,0.1,0.3,0.2,0.4C45,62.9,46.7,64.4,48.5,65.8z M30.1,37c-0.5,0-1,0-1.5,0c-0.4,0-0.6,0.2-0.6,0.6c0,2.5,0,5,0,7.4
			c0,0.2,0.3,0.5,0.6,0.6c0.5,0.1,1,0,1.5,0C30.1,42.7,30.1,39.9,30.1,37z M66.9,45.6c0.4,0,0.8,0,1.2,0c0.8,0,0.9-0.1,0.9-0.9
			c0-1.9,0-3.9,0-5.8c0-2.1,0.3-1.9-2-1.9c0,0-0.1,0-0.1,0.1C66.9,39.9,66.9,42.7,66.9,45.6z M33.3,46.7c0-3.6,0-7.2,0-10.7
			c-0.4,0-0.7,0-1,0c0,3.6,0,7.2,0,10.7C32.7,46.7,33,46.7,33.3,46.7z M63.7,35.9c0,3.6,0,7.2,0,10.7c0.4,0,0.7,0,1,0
			c0-3.6,0-7.2,0-10.7C64.3,35.9,64,35.9,63.7,35.9z M63.6,58.4c0-0.3,0-0.6,0-0.9c-0.7,0-1.4,0-2.1,0c0,0.3,0,0.6,0,0.9
			C62.2,58.4,62.9,58.4,63.6,58.4z"/>
		<path style="fill:#FFFFFF;" d="M42,42.4c-1.2,0-2.2-1-2.2-2.1c0-1.2,1-2.2,2.2-2.2c1.2,0,2.1,1,2.1,2.2
			C44.2,41.4,43.2,42.4,42,42.4z"/>
		<path style="fill:#FFFFFF;" d="M55,38.1c1.2,0,2.2,0.9,2.2,2.1c0,1.2-1,2.2-2.2,2.2c-1.2,0-2.1-1-2.1-2.2
			C52.8,39,53.8,38.1,55,38.1z"/>
		<path style="fill:#FFFFFF;" d="M48.5,52.1c-0.7,0-1.4,0-2,0c-0.7,0-1.2-0.5-1.2-1.1c0-0.6,0.5-1,1.2-1c1.4,0,2.7,0,4.1,0
			c0.7,0,1.2,0.5,1.2,1.1c0,0.6-0.5,1-1.2,1.1C49.9,52.1,49.2,52.1,48.5,52.1z"/>
		<g>
			<path style="fill:#FFFFFF;" d="M33.2,73.7l0-2.6l2.5,0l0,0.5l-1.9,0l0,1.5c0.4,0,1.1,0,1.6,0c0,0,0,0,0,0c0.9,0,1-0.3,1-0.8
				c0-0.2,0.1-0.6,0.3-0.9c0.2-0.3,0.5-0.4,1-0.4l0,0l0.8,0l0,0.5l-0.8,0c-0.6,0-0.7,0.3-0.7,0.8c0,0.6-0.2,1.3-1.6,1.3c0,0,0,0,0,0
				c-0.7,0-1.9,0-1.9,0L33.2,73.7z"/>
			<rect x="33.3" y="72.1" style="fill:#FFFFFF;" width="1.9" height="0.5"/>
			<path style="fill:#FFFFFF;" d="M40.6,73.7l-1.8,0l0-2.6l1.8,0c0.8,0,1.4,0.5,1.4,1.2l0,0.1c0,0.4-0.1,0.7-0.4,0.9
				C41.3,73.6,40.9,73.7,40.6,73.7z M39.3,73.2l1.3,0c0.5,0,0.8-0.3,0.8-0.8l0-0.1c0-0.5-0.4-0.7-0.8-0.7l-1.3,0L39.3,73.2z"/>
			<polygon style="fill:#FFFFFF;" points="44.6,73.7 42.2,73.7 42.2,71.1 44.6,71.1 44.6,71.6 42.8,71.6 42.8,73.2 44.6,73.2 			"/>
			<rect x="42.6" y="72.1" style="fill:#FFFFFF;" width="1.7" height="0.5"/>
			<path style="fill:#FFFFFF;" d="M32.9,73.7l-1.8,0c-0.7,0-1.3-0.6-1.3-1.3c0-0.7,0.6-1.3,1.3-1.3l1.8,0l0,0.5l-1.8,0
				c-0.4,0-0.8,0.3-0.8,0.8c0,0.4,0.3,0.8,0.8,0.8l1.8,0L32.9,73.7z"/>
		</g>
	</g>
</g>
</svg>
