<svg xmlns="http://www.w3.org/2000/svg" width="52" height="52" viewBox="0 0 52 52">
  <path id="Icon_ionic-ios-star" data-name="Icon ionic-ios-star" d="M52.277,21.375H35.2L30.014,4.7a1.837,1.837,0,0,0-3.529,0L21.3,21.375H4.107a1.938,1.938,0,0,0-1.857,2,1.578,1.578,0,0,0,.035.338,1.959,1.959,0,0,0,.778,1.412L17.1,35.775,11.71,52.637a2.1,2.1,0,0,0,.638,2.25,1.735,1.735,0,0,0,1.045.488,2.176,2.176,0,0,0,1.161-.45l13.7-10.513,13.7,10.513a2.08,2.08,0,0,0,1.161.45,1.612,1.612,0,0,0,1.033-.488,2.072,2.072,0,0,0,.638-2.25L39.393,35.775,53.31,25.025l.337-.312a2.163,2.163,0,0,0,.6-1.337A2.035,2.035,0,0,0,52.277,21.375Z" transform="translate(-2.25 -3.375)" fill="#ee2b7b"/>
</svg>
