<?xml version="1.0" encoding="utf-8"?>
<!-- Generator: Adobe Illustrator 26.2.1, SVG Export Plug-In . SVG Version: 6.00 Build 0)  -->
<svg version="1.1" id="Capa_1" xmlns="http://www.w3.org/2000/svg" xmlns:xlink="http://www.w3.org/1999/xlink" x="0px" y="0px"
	 viewBox="0 0 97 97" style="enable-background:new 0 0 97 97;" xml:space="preserve">
<g>
	<circle style="fill:#E71D73;" cx="48.5" cy="48.5" r="48.5"/>
	<g>
		<path style="fill:#FFFFFF;" d="M76.5,46.9c-1-0.4-2-0.7-3-1.1c-0.7-0.3-1.4-0.5-2.1-0.8c-0.2-0.1-0.4-0.1-0.6,0.1
			c-2.5,2.4-5.1,4.7-7.6,7.1c-0.2,0.2-0.4,0.4-0.6,0.6c-0.5,0.5-1.3,0.5-1.8,0c-0.3-0.2-0.5-0.5-0.7-0.7c0,0-0.1,0-0.1,0.1
			c0,0.2,0,0.4,0,0.6c0,4.8,0,9.7,0,14.5c0,0.9-0.5,1.4-1.5,1.4c-10,0-20,0-29.9,0c-2,0-3.9,0-5.9,0c-1.1,0-1.5-0.5-1.5-1.5
			c0-7.3,0-14.6,0-21.9c0-2.7,0-5.4,0-8.2c0-1.1,0.4-1.5,1.6-1.5c4.8-0.1,9.4,0.7,13.6,2.7c1.3,0.6,2.6,1.4,3.9,2.2
			c0.2,0.1,0.3,0.2,0.5,0.1c1.4-0.8,2.8-1.7,4.2-2.5c0,0-0.1-0.1-0.1-0.2c-0.5-0.5-0.5-1.2,0-1.7c1.3-1.3,2.7-2.5,4-3.8
			c1.5-1.4,3-2.9,4.6-4.3c0.2-0.2,0.2-0.3,0.1-0.6c-0.7-1.7-1.4-3.3-2.1-5c-0.2-0.6-0.3-1.1,0.2-1.6c0.5-0.4,1-0.4,1.6-0.2
			c6.1,2.2,12.2,4.4,18.4,6.6c0.6,0.2,0.9,0.6,1.2,1.1c2.3,5.7,4.7,11.4,7.1,17.1c0.3,0.7,0.2,1.3-0.4,1.8c-1.7,1.5-3.3,3.1-4.9,4.6
			c-0.2,0.2-0.3,0.4-0.3,0.6c0.1,1.2-0.9,2.2-2.2,2.3c-1.2,0.1-2.3-0.7-2.5-1.9c-0.2-1.1,0.7-2.2,1.9-2.4c0.1,0,0.2-0.1,0.3,0
			c0.6,0.2,0.8-0.2,1.2-0.5c1.1-1,2.2-2,3.2-3C76.3,47.1,76.4,47,76.5,46.9z M39.4,65.4c0-0.1,0-0.2,0-0.3c0-2.2,0-4.4,0-6.6
			c0-5.1,0-10.2,0-15.2c0-0.2-0.1-0.4-0.3-0.5c-0.6-0.4-1.2-0.9-1.9-1.2c-3.3-1.9-7-3-10.9-3.3C25.5,38,24.6,38,23.7,38
			c0,7.8,0,15.5,0,23.2C29.2,61.5,34.5,62.7,39.4,65.4z M76.5,44.4c-0.1-0.2-0.1-0.2-0.1-0.3c-2-4.7-3.9-9.4-5.9-14.1
			c-0.1-0.1-0.2-0.3-0.4-0.4c-5-1.8-10-3.6-15-5.5c-0.1,0-0.2-0.1-0.4-0.1c0.1,0.2,0.1,0.4,0.2,0.5c0.6,1.4,1.1,2.7,1.7,4.1
			c1.4,3.3,2.7,6.5,4.1,9.8c0.1,0.2,0.3,0.3,0.4,0.4c1.2,0.4,2.4,0.9,3.6,1.3c2.8,1,5.7,2.1,8.5,3.1C74.3,43.5,75.4,43.9,76.5,44.4z
			 M47.4,40.3c-0.2-0.2-0.3-0.5-0.7-0.3c-1.6,0.7-3.1,1.4-4.5,2.4c-0.2,0.1-0.3,0.3-0.3,0.6c0,7.3,0,14.5,0,21.8c0,0.1,0,0.2,0,0.4
			c4.8-2.6,10-3.7,15.4-4c0-0.1,0-0.2,0-0.2c0-3.7,0-7.4,0-11c0-0.2-0.6-1-0.8-1c0,0-0.1,0-0.2,0C56,48.9,55.6,49,55.2,49
			c-2.4,0.2-4.8,0.7-6.9,1.7c-1.1,0.5-2.1,1.2-3.1,1.8c-0.8,0.5-1.9,0.1-2-0.7c-0.1-0.6,0.2-1,0.7-1.3c2.4-1.7,5.1-2.8,8.1-3.4
			c0.8-0.2,1.5-0.3,2.3-0.4c-0.1-0.1-0.1-0.2-0.2-0.3c-0.3-0.2-0.5-0.5-0.8-0.7c-0.1-0.1-0.4-0.2-0.5-0.2c-2.7,0.4-5.2,1.3-7.4,2.7
			c-0.7,0.4-1.5,0.4-1.9-0.2c-0.4-0.6-0.3-1.3,0.5-1.7c1.3-0.7,2.6-1.4,4-1.9c0.9-0.4,1.9-0.6,3-0.9c-0.4-0.3-0.8-0.7-1.1-1
			c-0.2-0.2-0.4-0.2-0.7-0.2c-1.4,0.4-2.7,1-3.9,1.7c-0.7,0.4-1.4,0.2-1.8-0.4c-0.4-0.6-0.2-1.3,0.5-1.7c0.7-0.4,1.4-0.7,2.1-1
			C46.4,40.7,46.9,40.5,47.4,40.3z M68.4,44c-0.1,0-0.2-0.1-0.3-0.1c-1.4-0.5-2.9-1-4.3-1.6c-1.3-0.5-2.6-1-3.9-1.4
			c-0.8-0.2-1.2-0.7-1.4-1.3c-0.9-2.2-1.8-4.5-2.8-6.7c-0.3-0.8-0.7-1.7-1-2.5c-2.4,2.2-4.8,4.4-7.1,6.7c4.7,4.4,9.4,8.8,14.1,13.3
			C63.9,48.2,66.2,46.1,68.4,44z M35.4,66.2c-3.7-1.6-7.7-2.4-11.8-2.6c0,0.9,0,1.7,0,2.6C27.6,66.2,31.5,66.2,35.4,66.2z
			 M45.7,66.2c3.9,0,7.8,0,11.7,0c0-0.9,0-1.7,0-2.6C53.3,63.8,49.4,64.6,45.7,66.2z"/>
		<path style="fill:#FFFFFF;" d="M76.8,20.5c0-0.6,0-1.2,0-1.8c0-0.8,0.5-1.3,1.2-1.4c0.7,0,1.3,0.5,1.3,1.2
			c0.1,1.9,0.2,3.9,0.2,5.8c0,0.9-0.8,1.5-1.7,1.2c-2.1-0.6-4.2-1.2-6.3-1.9c-1-0.3-1.3-1.4-0.5-2c0.4-0.3,0.8-0.4,1.3-0.2
			c0.8,0.2,1.6,0.5,2.4,0.6c-0.4-0.3-0.8-0.7-1.2-1c-5.3-4.2-11.3-7-18.1-8.2c-7.1-1.2-14.1-0.7-20.9,1.7c-5.2,1.8-9.7,4.5-13.6,8.2
			c-0.1,0.1-0.3,0.2-0.4,0.3c-0.6,0.3-1.3,0.2-1.7-0.3c-0.4-0.5-0.3-1.2,0.1-1.6c1.1-1,2.3-1.9,3.5-2.8c4.6-3.5,9.9-5.9,15.6-7.3
			c6.6-1.6,13.2-1.6,19.8-0.1c7.1,1.6,13.2,4.7,18.5,9.3C76.6,20.3,76.7,20.4,76.8,20.5z"/>
		<path style="fill:#FFFFFF;" d="M21.8,75.1c1,0.8,2,1.6,3,2.3c5.1,3.6,10.8,6,17.1,6.9c6.7,1,13.3,0.5,19.7-1.7
			c5.3-1.8,9.9-4.6,13.9-8.3c0.4-0.4,0.9-0.6,1.5-0.5c0.5,0.1,0.7,0.4,0.9,0.9c0.1,0.5-0.1,0.9-0.5,1.2c-1.6,1.3-3.2,2.7-4.9,3.9
			c-4.1,2.8-8.7,4.8-13.6,6c-5.3,1.3-10.6,1.6-16,0.9c-6.6-0.8-12.7-3-18.2-6.6c-1.7-1.1-3.3-2.4-4.9-3.6c0,0.5,0,1.1,0,1.8
			c0,0.5-0.1,0.9-0.6,1.1c-0.8,0.5-1.9,0-1.9-0.8c-0.1-1-0.1-2-0.1-3c0-0.9-0.1-1.9-0.1-2.8c0-1.2,0.7-1.7,1.9-1.3
			c2,0.6,4,1.2,6,1.8c0.7,0.2,1.1,0.9,0.9,1.5c-0.2,0.6-0.9,1-1.6,0.8c-0.7-0.2-1.4-0.4-2.1-0.6c-0.1,0-0.2-0.1-0.3-0.1
			C21.8,75,21.8,75,21.8,75.1z"/>
		<path style="fill:#FFFFFF;" d="M36.5,58.4c-0.3-0.2-0.6-0.3-0.9-0.5c-2.7-2.2-5.9-3.5-9.5-4.1c-0.9-0.1-1.4-0.7-1.3-1.3
			c0.1-0.7,0.7-1.1,1.6-1c4.1,0.6,7.7,2.1,10.8,4.7c0.5,0.4,0.6,0.9,0.4,1.4C37.5,58.1,37.1,58.3,36.5,58.4z"/>
		<path style="fill:#FFFFFF;" d="M27.1,40.4c3.7,0.2,7.1,1.2,10.3,3.1c0.2,0.1,0.4,0.3,0.6,0.4c0.5,0.4,0.6,1.1,0.2,1.7
			c-0.4,0.5-1.1,0.6-1.7,0.3c-1-0.5-1.9-1.1-3-1.5c-2.2-1-4.6-1.4-7-1.5c-0.8,0-1.3-0.4-1.5-1c-0.1-0.7,0.4-1.4,1.2-1.4
			C26.6,40.4,26.8,40.4,27.1,40.4z"/>
		<path style="fill:#FFFFFF;" d="M26.6,47.7c4,0.3,7.7,1.6,10.9,3.8c0.7,0.5,0.8,1.2,0.4,1.7c-0.5,0.6-1.2,0.7-2,0.2
			c-2.7-1.9-5.7-2.9-9-3.3c-0.2,0-0.5-0.1-0.7-0.1C25.5,50,25,49.4,25,48.7c0.1-0.7,0.6-1.1,1.4-1.1C26.5,47.7,26.6,47.7,26.6,47.7z
			"/>
		<path style="fill:#FFFFFF;" d="M27,43.8c3.7,0.4,7,1.4,10.1,3.2c0.5,0.3,0.8,0.7,0.7,1.3c-0.2,0.8-1.1,1.2-1.9,0.8
			c-1-0.5-2-1.1-3.1-1.5c-2-0.8-4.2-1.3-6.4-1.4c-0.7,0-1.1-0.3-1.3-0.9c-0.2-0.5,0-1.1,0.5-1.3C26,44,26.5,43.9,27,43.8z"/>
		<path style="fill:#FFFFFF;" d="M43.1,56.6c0-0.3,0.2-0.6,0.6-0.9c1.7-1.4,3.6-2.5,5.7-3.3c1.9-0.7,3.9-1.2,6-1.4
			c0.8-0.1,1.4,0.3,1.5,1c0.1,0.6-0.4,1.2-1.2,1.3c-2.7,0.3-5.2,1-7.5,2.3c-1,0.6-2,1.3-3,2c-0.5,0.3-0.9,0.4-1.4,0.2
			C43.4,57.6,43.2,57.2,43.1,56.6z"/>
	</g>
</g>
</svg>
