<svg xmlns="http://www.w3.org/2000/svg" width="47" height="47" viewBox="0 0 47 47">
  <path id="Icon_awesome-calendar-alt" data-name="Icon awesome-calendar-alt" d="M0,42.594C0,45.026,2.256,47,5.036,47H41.964C44.744,47,47,45.026,47,42.594V17.625H0ZM33.571,24.6a1.192,1.192,0,0,1,1.259-1.1h4.2a1.192,1.192,0,0,1,1.259,1.1v3.672a1.192,1.192,0,0,1-1.259,1.1h-4.2a1.192,1.192,0,0,1-1.259-1.1Zm0,11.75a1.192,1.192,0,0,1,1.259-1.1h4.2a1.192,1.192,0,0,1,1.259,1.1v3.672a1.192,1.192,0,0,1-1.259,1.1h-4.2a1.192,1.192,0,0,1-1.259-1.1ZM20.143,24.6A1.192,1.192,0,0,1,21.4,23.5h4.2a1.192,1.192,0,0,1,1.259,1.1v3.672a1.192,1.192,0,0,1-1.259,1.1H21.4a1.192,1.192,0,0,1-1.259-1.1Zm0,11.75a1.192,1.192,0,0,1,1.259-1.1h4.2a1.192,1.192,0,0,1,1.259,1.1v3.672a1.192,1.192,0,0,1-1.259,1.1H21.4a1.192,1.192,0,0,1-1.259-1.1ZM6.714,24.6a1.192,1.192,0,0,1,1.259-1.1h4.2a1.192,1.192,0,0,1,1.259,1.1v3.672a1.192,1.192,0,0,1-1.259,1.1h-4.2a1.192,1.192,0,0,1-1.259-1.1Zm0,11.75a1.192,1.192,0,0,1,1.259-1.1h4.2a1.192,1.192,0,0,1,1.259,1.1v3.672a1.192,1.192,0,0,1-1.259,1.1h-4.2a1.192,1.192,0,0,1-1.259-1.1ZM41.964,5.875H36.929V1.469A1.589,1.589,0,0,0,35.25,0H31.893a1.589,1.589,0,0,0-1.679,1.469V5.875H16.786V1.469A1.589,1.589,0,0,0,15.107,0H11.75a1.589,1.589,0,0,0-1.679,1.469V5.875H5.036C2.256,5.875,0,7.849,0,10.281v4.406H47V10.281C47,7.849,44.744,5.875,41.964,5.875Z" fill="#ee2b7b"/>
</svg>
