<?xml version="1.0" encoding="utf-8"?>
<!-- Generator: Adobe Illustrator 26.2.1, SVG Export Plug-In . SVG Version: 6.00 Build 0)  -->
<svg version="1.1" id="Capa_1" xmlns="http://www.w3.org/2000/svg" xmlns:xlink="http://www.w3.org/1999/xlink" x="0px" y="0px"
	 viewBox="0 0 97 97" style="enable-background:new 0 0 97 97;" xml:space="preserve">
<g>
	<circle style="fill:#E71D73;" cx="48.5" cy="48.5" r="48.5"/>
	<g>
		<path style="fill:#FFFFFF;" d="M63.7,40.1c-6.3-0.8-10-4.3-11.1-10.5c-0.2,0-0.4,0-0.6,0c-0.5,0-1,0-1.5,0c0,1.3,0,2.5,0,3.7
			c0,1.8-0.7,2.6-2.6,2.6c-5.2,0-10.3,0-15.5,0c-0.2,0-0.5,0-0.7,0c0,1.5,0,2.9,0,4.2c0.5,0,1.1-0.1,1.6,0c0.5,0.1,1,0.4,1.5,0.6
			c1.8-1.3,4.1-0.9,5.1,1.5c0.1,0,0.3,0,0.4-0.1c2-0.5,3.8,1,3.9,3.1c0,1,0,2,0,3.1c2.1,0,4.1,0,6.2,0c0,0.7,0,1.4,0,2.1
			c-2.1,0-4.1,0-6.2,0c0,1.2,0,2.3,0,3.4c0.1,2.9-0.4,5.7-2,8.2c-0.1,0.1-0.1,0.3-0.1,0.5c0,2.2,0,4.4,0,6.7c1.4,0,2.7,0,4.1,0
			c0,0.7,0,1.4,0,2.1c-1.4,0-2.7,0-4.1,0c0,3.5,0,6.9,0,10.4c-6.3,0-12.5,0-18.9,0c0-0.2,0-0.5,0-0.7c0-5.9,0-11.9,0-17.8
			c0-0.5-0.1-0.8-0.5-1.2c-1.8-1.5-2.8-3.5-3.2-5.8c-0.4-2.8-1.3-5.5-2.3-8.1c-0.9-2.2,0.7-4.2,3-4c2.2,0.2,3.9,1.7,4.5,3.8
			c0.2,0.6,0.2,1.2,0.4,1.9c0,0.2,0.1,0.3,0.2,0.5c0-4.8,0-9.6,0-14.5c-1.3,0-2.6,0-3.8,0c-1.6,0-2.4-0.8-2.4-2.4
			c0-4.7,0-9.4,0-14.1c0-1.5,0.8-2.3,2.4-2.3c8.9,0,17.8,0,26.7,0c1.5,0,2.3,0.8,2.3,2.3c0,2.4,0,4.9,0,7.3c0,0.2,0,0.5,0,0.8
			c0.7,0,1.4,0,2.1,0c0.4-3.2,1.8-5.9,4.3-7.9c1.8-1.5,4-2.3,6.3-2.5c4.7-0.4,9.2,2.3,11.3,6.6c1.8,3.8,1.7,10-3.7,14.2
			c7.5,0.5,11.5,7.1,11,12.7c-0.6,6.2-6.3,11.3-13.2,10.3c4.7,4,6.3,8.9,3.6,14.7c-1.9,4.2-6.5,6.8-11.1,6.3
			c-6.2-0.7-9.6-4.4-10.8-10.4c-0.3,0-0.7,0-1,0c-0.3,0-0.6,0-1,0c0-0.7,0-1.3,0-2.1c0.7,0,1.4,0,2.1,0c0.4-3.3,1.8-6,4.4-8.1
			c2.6-2,5.5-2.7,9-2.3c-3-2.2-4.6-5-5-8.5c-2.1,0-4.2,0-6.3,0c0-0.7,0-1.3,0-2.1c2.1,0,4.1,0,6.3,0C59.3,45,60.9,42.3,63.7,40.1z
			 M29.6,50.5c0-0.3,0-0.5,0-0.8c0-4.8,0-9.6,0-14.4c0-0.2,0-0.4,0-0.7c-0.1-0.6-0.5-0.9-1-0.9c-0.6,0-0.9,0.3-1,0.9
			c0,0.2,0,0.4,0,0.7c0,5,0,10,0,15c0,1.2-0.8,2.2-2,2.3c-1.2,0.1-2.1-0.7-2.3-1.9c-0.1-0.7-0.2-1.3-0.4-2c-0.3-1.2-1.1-2-2.3-2.3
			c-0.4-0.1-0.9-0.1-1.2,0.2c-0.2,0.1-0.1,0.8,0,1.1c1.1,2.8,1.9,5.6,2.4,8.5c0.3,1.8,1.2,3.3,2.6,4.5c0.2,0.1,0.5,0.3,0.7,0.3
			c5,0,10,0,15,0c0.2,0,0.5-0.2,0.6-0.4c0.5-1.3,1.2-2.5,1.3-3.8c0.2-3.8,0.2-7.7,0.2-11.6c0-0.6-0.5-1-1-1c-0.6,0-1,0.4-1.1,1
			c0,0.8,0,1.7,0,2.5c0,0.9,0,1.8,0,2.7c-0.7,0-1.4,0-2.1,0c0-2.4,0-4.7,0-7c0-0.8-0.4-1.3-1.1-1.3c-0.6,0-1,0.5-1,1.3
			c0,1.9,0,3.7,0,5.6c0,0.5,0,1,0,1.5c-0.7,0-1.4,0-2.1,0c0-2.2,0-4.4,0-6.6c0-1.2-0.3-1.7-1.1-1.7c-0.7,0-1,0.5-1,1.7
			c0,2,0,4,0,5.9c0,0.2,0,0.5,0,0.7C31,50.5,30.3,50.5,29.6,50.5z M21.3,33.8c1.3,0,2.5,0,3.8,0c0.4,0,0.6-0.1,0.8-0.5
			c1.2-2.2,4.2-2.2,5.4-0.1c0.2,0.4,0.5,0.5,0.9,0.5c5.2,0,10.4,0,15.6,0c0.2,0,0.4,0,0.6,0c0-4.9,0-9.7,0-14.6
			c-9.1,0-18.1,0-27.1,0C21.3,24.1,21.3,28.9,21.3,33.8z M40,79.8c0-5.6,0-11.1,0-16.7c-4.9,0-9.7,0-14.6,0c0,5.6,0,11.1,0,16.7
			C30.3,79.8,35.2,79.8,40,79.8z M79.8,49.5c0-5.2-4.2-9.4-9.4-9.4c-5.2,0-9.4,4.2-9.4,9.4c0,5.2,4.2,9.4,9.4,9.4
			C75.6,58.9,79.8,54.7,79.8,49.5z M62.1,61c-5.2,0-9.4,4.2-9.4,9.4c0,5.2,4.2,9.5,9.4,9.5c5.2,0,9.4-4.2,9.4-9.4
			C71.5,65.3,67.3,61,62.1,61z M54.7,28.5c0,5.2,4.2,9.4,9.3,9.5c5.2,0,9.5-4.2,9.5-9.4c0-5.2-4.2-9.4-9.3-9.5
			C59,19.1,54.7,23.3,54.7,28.5z"/>
		<path style="fill:#FFFFFF;" d="M23.7,21.9c0,0.5,0,0.9,0,1.4c0,0.4-0.2,0.6-0.5,0.6c-0.3,0-0.5-0.2-0.5-0.6c0-0.6,0-1.2,0-1.8
			c0-0.4,0.2-0.6,0.6-0.6c0.6,0,1.2,0,1.8,0c0.4,0,0.6,0.2,0.6,0.5c0,0.3-0.2,0.5-0.6,0.5C24.6,21.9,24.2,21.9,23.7,21.9z"/>
		<path style="fill:#FFFFFF;" d="M23.7,31.1c0.5,0,1,0,1.4,0c0.4,0,0.6,0.2,0.6,0.5c0,0.3-0.2,0.5-0.6,0.5c-0.6,0-1.2,0-1.8,0
			c-0.4,0-0.6-0.2-0.6-0.6c0-0.6,0-1.2,0-1.9c0-0.4,0.2-0.6,0.5-0.6c0.3,0,0.5,0.2,0.5,0.6C23.7,30.1,23.7,30.6,23.7,31.1z"/>
		<path style="fill:#FFFFFF;" d="M45.9,21.9c-0.5,0-0.9,0-1.4,0c-0.4,0-0.6-0.2-0.6-0.5c0-0.3,0.2-0.5,0.6-0.5c0.6,0,1.2,0,1.8,0
			c0.4,0,0.6,0.2,0.6,0.6c0,0.6,0,1.2,0,1.8c0,0.4-0.2,0.6-0.5,0.6c-0.3,0-0.5-0.2-0.5-0.6C45.9,22.9,45.9,22.4,45.9,21.9z"/>
		<path style="fill:#FFFFFF;" d="M45.9,31.1c0-0.5,0-1,0-1.4c0-0.4,0.2-0.6,0.5-0.6c0.3,0,0.5,0.2,0.5,0.6c0,0.6,0,1.2,0,1.9
			c0,0.4-0.2,0.6-0.6,0.6c-0.6,0-1.2,0-1.9,0c-0.4,0-0.6-0.2-0.6-0.5c0-0.3,0.2-0.5,0.6-0.5C44.9,31.1,45.4,31.1,45.9,31.1z"/>
		<path style="fill:#FFFFFF;" d="M34.6,29.4c0-0.8,0-1.6,0-2.4c0-0.1-0.1-0.2-0.2-0.2c-0.9-0.3-1.5-0.9-1.7-1.8
			c-0.2-1.1,0.5-2.2,1.6-2.5c0.2-0.1,0.3-0.1,0.4-0.3c0-0.1,0.3-0.3,0.5-0.3c0.2,0,0.4,0.2,0.4,0.3c0.1,0.1,0.1,0.2,0.3,0.3
			c1,0.3,1.6,1,1.8,2c0,0.3-0.1,0.6-0.4,0.6c-0.3,0-0.5-0.1-0.6-0.5c-0.1-0.4-0.3-0.8-0.7-1c-0.1-0.1-0.2-0.1-0.4-0.1
			c0,0.8,0,1.6,0,2.4c0,0.1,0.1,0.2,0.2,0.2c0.9,0.3,1.5,0.9,1.7,1.8c0.2,1-0.5,2.2-1.6,2.5c-0.2,0.1-0.4,0.1-0.5,0.4
			c0,0.1-0.3,0.3-0.4,0.3c-0.2,0-0.4-0.2-0.4-0.3c-0.1-0.1-0.1-0.2-0.3-0.3c-1-0.3-1.6-1-1.8-2c0-0.4,0.1-0.6,0.4-0.7
			c0.3,0,0.5,0.1,0.6,0.5c0.1,0.4,0.2,0.8,0.6,1C34.4,29.3,34.5,29.3,34.6,29.4z M34.6,23.5c-0.6,0.1-1,0.6-1,1.2
			c0,0.5,0.5,1.1,1,1.1C34.6,25,34.6,24.3,34.6,23.5z M35.7,29.3c0.5-0.1,1-0.6,1-1.2c0-0.5-0.4-1-1-1.1
			C35.7,27.8,35.7,28.6,35.7,29.3z"/>
		<path style="fill:#FFFFFF;" d="M63.4,32.4c0-1.2,0-2.3,0-3.4c0-0.1-0.2-0.2-0.3-0.3c-1.3-0.4-2.2-1.3-2.5-2.6
			c-0.3-1.5,0.8-3.1,2.3-3.6c0.3-0.1,0.5-0.1,0.6-0.5c0.1-0.2,0.4-0.4,0.7-0.4c0.2,0,0.5,0.2,0.6,0.5c0.1,0.2,0.2,0.3,0.4,0.4
			c1.4,0.4,2.4,1.5,2.5,2.9c0.1,0.5-0.2,0.8-0.6,0.9c-0.4,0.1-0.7-0.2-0.8-0.7c-0.1-0.6-0.4-1.2-0.9-1.5c-0.1-0.1-0.3-0.1-0.5-0.2
			c0,1.2,0,2.3,0,3.4c0,0.1,0.2,0.2,0.3,0.3c1.3,0.4,2.2,1.3,2.5,2.6c0.3,1.5-0.7,3.1-2.3,3.5c-0.3,0.1-0.5,0.2-0.7,0.5
			c-0.1,0.2-0.4,0.4-0.6,0.4c-0.2,0-0.5-0.2-0.6-0.5c-0.1-0.2-0.2-0.3-0.4-0.4c-1.4-0.4-2.3-1.5-2.5-2.9c-0.1-0.5,0.2-0.9,0.6-1
			c0.4-0.1,0.7,0.2,0.8,0.7c0.1,0.6,0.4,1.1,0.9,1.5C63,32.3,63.2,32.3,63.4,32.4z M63.4,24c-0.8,0.2-1.4,0.9-1.4,1.7
			c0,0.8,0.7,1.5,1.4,1.6C63.4,26.2,63.4,25.1,63.4,24z M64.9,32.4c0.8-0.1,1.4-0.9,1.4-1.6c0-0.8-0.6-1.5-1.4-1.6
			C64.9,30.2,64.9,31.3,64.9,32.4z"/>
		<path style="fill:#FFFFFF;" d="M69.7,53.5c0-1.2,0-2.3,0-3.4c0-0.1-0.2-0.2-0.3-0.3c-1.3-0.4-2.2-1.3-2.5-2.6
			c-0.3-1.5,0.8-3.1,2.3-3.6c0.3-0.1,0.5-0.1,0.6-0.5c0.1-0.2,0.4-0.4,0.7-0.4c0.2,0,0.5,0.2,0.6,0.5c0.1,0.2,0.2,0.3,0.4,0.4
			c1.4,0.4,2.4,1.5,2.5,2.9c0.1,0.5-0.2,0.8-0.6,0.9c-0.4,0.1-0.7-0.2-0.8-0.7c-0.1-0.6-0.4-1.2-0.9-1.5c-0.1-0.1-0.3-0.1-0.5-0.2
			c0,1.2,0,2.3,0,3.4c0,0.1,0.2,0.2,0.3,0.3c1.3,0.4,2.2,1.3,2.5,2.6c0.3,1.5-0.7,3.1-2.3,3.5c-0.3,0.1-0.5,0.2-0.7,0.5
			c-0.1,0.2-0.4,0.4-0.6,0.4c-0.2,0-0.5-0.2-0.6-0.5c-0.1-0.2-0.2-0.3-0.4-0.4c-1.4-0.4-2.3-1.5-2.5-2.9c-0.1-0.5,0.2-0.9,0.6-1
			c0.4-0.1,0.7,0.2,0.8,0.7c0.1,0.6,0.4,1.1,0.9,1.5C69.3,53.3,69.5,53.4,69.7,53.5z M69.7,45.1c-0.8,0.2-1.4,0.9-1.4,1.7
			c0,0.8,0.7,1.5,1.4,1.6C69.7,47.3,69.7,46.2,69.7,45.1z M71.2,53.4c0.8-0.1,1.4-0.9,1.4-1.6c0-0.8-0.6-1.5-1.4-1.6
			C71.2,51.2,71.2,52.3,71.2,53.4z"/>
		<path style="fill:#FFFFFF;" d="M60.9,74.6c0-1.2,0-2.3,0-3.4c0-0.1-0.2-0.2-0.3-0.3c-1.3-0.4-2.2-1.3-2.5-2.6
			c-0.3-1.5,0.8-3.1,2.3-3.6c0.3-0.1,0.5-0.1,0.6-0.5c0.1-0.2,0.4-0.4,0.7-0.4c0.2,0,0.5,0.2,0.6,0.5c0.1,0.2,0.2,0.3,0.4,0.4
			c1.4,0.4,2.4,1.5,2.5,2.9c0.1,0.5-0.2,0.8-0.6,0.9c-0.4,0.1-0.7-0.2-0.8-0.7c-0.1-0.6-0.4-1.2-0.9-1.5c-0.1-0.1-0.3-0.1-0.5-0.2
			c0,1.2,0,2.3,0,3.4c0,0.1,0.2,0.2,0.3,0.3c1.3,0.4,2.2,1.3,2.5,2.6c0.3,1.5-0.7,3.1-2.3,3.5c-0.3,0.1-0.5,0.2-0.7,0.5
			c-0.1,0.2-0.4,0.4-0.6,0.4c-0.2,0-0.5-0.2-0.6-0.5c-0.1-0.2-0.2-0.3-0.4-0.4c-1.4-0.4-2.3-1.5-2.5-2.9c-0.1-0.5,0.2-0.9,0.6-1
			c0.4-0.1,0.7,0.2,0.8,0.7c0.1,0.6,0.4,1.1,0.9,1.5C60.5,74.5,60.7,74.6,60.9,74.6z M60.9,66.2c-0.8,0.2-1.4,0.9-1.4,1.7
			c0,0.8,0.7,1.5,1.4,1.6C60.9,68.4,60.9,67.4,60.9,66.2z M62.4,74.6c0.8-0.1,1.4-0.9,1.4-1.6c0-0.8-0.6-1.5-1.4-1.6
			C62.4,72.4,62.4,73.5,62.4,74.6z"/>
		<g>
			<path style="fill:#FFFFFF;" d="M35.1,33.3c-3.7,0-6.8-3-6.8-6.8s3-6.8,6.8-6.8c3.7,0,6.8,3,6.8,6.8S38.9,33.3,35.1,33.3z
				 M35.1,21.1c-3,0-5.4,2.4-5.4,5.4s2.4,5.4,5.4,5.4c3,0,5.4-2.4,5.4-5.4S38.1,21.1,35.1,21.1z"/>
		</g>
	</g>
</g>
</svg>
